PowerhouseFilar-RegularItalic.ufo
<glyph name="exclam" format="2">
  <advance width="255"/>
  <unicode hex="0021"/>
  <outline>
    <contour>
      <point x="259" y="700" type="line"/>
      <point x="156" y="700" type="line"/>
      <point x="95" y="227" type="line"/>
      <point x="152" y="227" type="line"/>
    </contour>
    <component base="period" xScale="-1" yScale="-1" xOffset="194" yOffset="124"/>
  </outline>
</glyph>
<glyph name="dollar" format="2">
  <advance width="551"/>
  <unicode hex="0024"/>
  <outline>
    <contour>
      <point x="37" y="196" type="curve"/>
      <point x="124" y="189" type="line"/>
      <point x="124" y="187"/>
      <point x="124" y="186"/>
      <point x="124" y="184" type="curve" smooth="yes"/>
      <point x="124" y="116"/>
      <point x="172" y="64"/>
      <point x="263" y="64" type="curve" smooth="yes"/>
      <point x="358" y="64"/>
      <point x="415" y="121"/>
      <point x="415" y="200" type="curve" smooth="yes"/>
      <point x="415" y="261"/>
      <point x="378" y="285"/>
      <point x="322" y="304" type="curve" smooth="yes"/>
      <point x="259" y="325" type="line" smooth="yes"/>
      <point x="165" y="356"/>
      <point x="108" y="406"/>
      <point x="108" y="494" type="curve" smooth="yes"/>
      <point x="108" y="609"/>
      <point x="196" y="712"/>
      <point x="345" y="712" type="curve" smooth="yes"/>
      <point x="447" y="712"/>
      <point x="540" y="649"/>
      <point x="540" y="535" type="curve" smooth="yes"/>
      <point x="540" y="531"/>
      <point x="540" y="529"/>
      <point x="540" y="525" type="curve"/>
      <point x="456" y="532" type="line"/>
      <point x="457" y="593"/>
      <point x="413.2931034482759" y="636.0"/>
      <point x="337" y="636" type="curve" smooth="yes"/>
      <point x="247" y="636"/>
      <point x="191" y="578"/>
      <point x="191" y="508" type="curve" smooth="yes"/>
      <point x="191" y="454"/>
      <point x="226" y="425"/>
      <point x="295" y="402" type="curve" smooth="yes"/>
      <point x="358" y="381" type="line" smooth="yes"/>
      <point x="451" y="350"/>
      <point x="501" y="297"/>
      <point x="501" y="210" type="curve" smooth="yes"/>
      <point x="501" y="110"/>
      <point x="441" y="-12"/>
      <point x="257" y="-12" type="curve" smooth="yes"/>
      <point x="107" y="-12"/>
      <point x="36" y="81"/>
      <point x="36" y="182" type="curve" smooth="yes"/>
      <point x="36" y="187"/>
      <point x="36" y="189"/>
    </contour>
    <contour>
      <point x="180" y="-112" type="line"/>
      <point x="262" y="353" type="line"/>
      <point x="270" y="384" type="line"/>
      <point x="343" y="797" type="line"/>
      <point x="411" y="797" type="line"/>
      <point x="335" y="366" type="line"/>
      <point x="328" y="342" type="line"/>
      <point x="248" y="-112" type="line"/>
    </contour>
  </outline>
</glyph>
<glyph name="parenleft" format="2">
  <advance width="379"/>
  <unicode hex="0028"/>
  <outline>
    <contour>
      <point x="159" y="413"/>
      <point x="260" y="599"/>
      <point x="469" y="745" type="curve"/>
      <point x="357" y="745" type="line"/>
      <point x="167" y="614"/>
      <point x="64" y="425"/>
      <point x="64" y="232" type="curve" smooth="yes"/>
      <point x="64" y="109"/>
      <point x="114" y="-17"/>
      <point x="207" y="-113" type="curve"/>
      <point x="305" y="-113" type="line"/>
      <point x="208" y="-11"/>
      <point x="159" y="107"/>
      <point x="159" y="231" type="curve" smooth="yes"/>
    </contour>
  </outline>
</glyph>
<glyph name="asterisk" format="2">
  <advance width="430"/>
  <unicode hex="002A"/>
  <outline>
    <contour>
      <point x="319" y="700.0" type="line"/>
      <point x="249" y="700.0" type="line"/>
      <point x="215" y="506.0" type="line"/>
      <point x="285" y="506.0" type="line"/>
    </contour>
    <contour>
      <point x="97" y="606.0" type="line"/>
      <point x="67" y="543.0" type="line"/>
      <point x="241" y="483.0" type="line"/>
      <point x="271" y="546.0" type="line"/>
    </contour>
    <contour>
      <point x="445" y="540.0" type="line"/>
      <point x="436" y="604.0" type="line"/>
      <point x="240" y="544.0" type="line"/>
      <point x="251" y="480.0" type="line"/>
    </contour>
    <contour>
      <point x="76" y="370.0" type="line"/>
      <point x="127" y="326.0" type="line"/>
      <point x="269" y="483.0" type="line"/>
      <point x="218" y="527.0" type="line"/>
    </contour>
    <contour>
      <point x="310" y="328.0" type="line"/>
      <point x="370" y="366.0" type="line"/>
      <point x="284" y="523.0" type="line"/>
      <point x="224" y="485.0" type="line"/>
    </contour>
  </outline>
</glyph>
<glyph name="hyphen" format="2">
  <advance width="384"/>
  <unicode hex="002D"/>
  <outline>
    <contour>
      <point x="62" y="257" type="line"/>
      <point x="308" y="257" type="line"/>
      <point x="322" y="335" type="line"/>
      <point x="76" y="335" type="line"/>
    </contour>
  </outline>
</glyph>
<glyph name="period" format="2">
  <advance width="265"/>
  <unicode hex="002E"/>
  <outline>
    <contour>
      <point x="58" y="124" type="line"/>
      <point x="36" y="0" type="line"/>
      <point x="141" y="0" type="line"/>
      <point x="163" y="124" type="line"/>
    </contour>
  </outline>
</glyph>
<glyph name="slash" format="2">
  <advance width="453"/>
  <unicode hex="002F"/>
  <outline>
    <contour>
      <point x="443" y="745" type="line"/>
      <point x="-97" y="-113" type="line"/>
      <point x="-1" y="-113" type="line"/>
      <point x="539" y="745" type="line"/>
    </contour>
  </outline>
</glyph>
<glyph name="four" format="2">
  <advance width="621"/>
  <unicode hex="0034"/>
  <outline>
    <contour>
      <point x="539" y="700" type="line"/>
      <point x="440" y="700" type="line"/>
      <point x="33" y="261" type="line"/>
      <point x="20" y="183" type="line"/>
      <point x="579" y="183" type="line"/>
      <point x="592" y="260" type="line"/>
      <point x="61" y="260" type="line"/>
      <point x="76" y="196" type="line"/>
      <point x="506" y="661" type="line"/>
      <point x="443" y="661" type="line"/>
      <point x="326" y="0" type="line"/>
      <point x="415" y="0" type="line"/>
    </contour>
  </outline>
</glyph>
<glyph name="seven" format="2">
  <advance width="575"/>
  <unicode hex="0037"/>
  <outline>
    <contour>
      <point x="140" y="700" type="line"/>
      <point x="99" y="470" type="line"/>
      <point x="190" y="470" type="line"/>
      <point x="222" y="652" type="line"/>
      <point x="187" y="622" type="line"/>
      <point x="582" y="622" type="line"/>
      <point x="560" y="668" type="line"/>
      <point x="390" y="462"/>
      <point x="177" y="237"/>
      <point x="126" y="0" type="curve"/>
      <point x="225" y="0" type="line"/>
      <point x="275" y="233"/>
      <point x="468" y="438"/>
      <point x="627" y="632" type="curve"/>
      <point x="639" y="700" type="line"/>
    </contour>
  </outline>
</glyph>
<glyph name="nine" format="2">
  <advance width="575"/>
  <unicode hex="0039"/>
  <outline>
    <contour>
      <point x="554" y="635"/>
      <point x="470" y="712"/>
      <point x="347" y="712" type="curve" smooth="yes"/>
      <point x="158" y="712"/>
      <point x="76" y="562"/>
      <point x="76" y="429" type="curve" smooth="yes"/>
      <point x="76" y="309"/>
      <point x="154" y="234"/>
      <point x="262" y="234" type="curve" smooth="yes"/>
      <point x="353" y="234"/>
      <point x="446" y="289"/>
      <point x="479" y="390" type="curve"/>
      <point x="454" y="391" type="line"/>
      <point x="443" y="327" type="line" smooth="yes"/>
      <point x="416" y="170"/>
      <point x="348" y="63"/>
      <point x="232" y="63" type="curve" smooth="yes"/>
      <point x="161" y="63"/>
      <point x="119" y="102"/>
      <point x="119" y="160" type="curve" smooth="yes"/>
      <point x="119" y="163"/>
      <point x="119" y="166"/>
      <point x="119" y="170" type="curve"/>
      <point x="30" y="190" type="line"/>
      <point x="29" y="181"/>
      <point x="28" y="172"/>
      <point x="28" y="163" type="curve" smooth="yes"/>
      <point x="28" y="67"/>
      <point x="88" y="-12"/>
      <point x="223" y="-12" type="curve" smooth="yes"/>
      <point x="391" y="-12"/>
      <point x="498" y="115"/>
      <point x="540" y="355" type="curve" smooth="yes"/>
      <point x="549" y="406"/>
      <point x="554" y="449"/>
      <point x="554" y="485" type="curve" smooth="yes"/>
    </contour>
    <contour>
      <point x="413" y="636"/>
      <point x="466" y="583"/>
      <point x="466" y="502" type="curve" smooth="yes"/>
      <point x="466" y="407"/>
      <point x="399" y="308"/>
      <point x="294" y="308" type="curve" smooth="yes"/>
      <point x="215" y="308"/>
      <point x="167" y="362"/>
      <point x="167" y="443" type="curve" smooth="yes"/>
      <point x="167" y="538"/>
      <point x="231" y="636"/>
      <point x="337" y="636" type="curve" smooth="yes"/>
    </contour>
  </outline>
</glyph>
<glyph name="less" format="2">
  <advance width="576"/>
  <unicode hex="003C"/>
  <outline>
    <contour>
      <point x="85" y="383" type="line"/>
      <point x="69" y="297" type="line"/>
      <point x="486" y="76" type="line"/>
      <point x="500" y="158" type="line"/>
      <point x="140" y="348" type="line"/>
      <point x="135" y="319" type="line"/>
      <point x="562" y="509" type="line"/>
      <point x="580" y="604" type="line"/>
    </contour>
  </outline>
</glyph>
<glyph name="equal" format="2">
  <advance width="576"/>
  <unicode hex="003D"/>
  <outline>
    <contour>
      <point x="543" y="402.0" type="line"/>
      <point x="556" y="478.0" type="line"/>
      <point x="100" y="478.0" type="line"/>
      <point x="87" y="402.0" type="line"/>
    </contour>
    <contour>
      <point x="508" y="202.0" type="line"/>
      <point x="521" y="278.0" type="line"/>
      <point x="65" y="278.0" type="line"/>
      <point x="52" y="202.0" type="line"/>
    </contour>
  </outline>
</glyph>
<glyph name="question" format="2">
  <advance width="481"/>
  <unicode hex="003F"/>
  <outline>
    <contour>
      <point x="184" y="227" type="line"/>
      <point x="265" y="227" type="line"/>
      <point x="267" y="237" type="line" smooth="yes"/>
      <point x="276" y="281"/>
      <point x="301" y="311"/>
      <point x="354" y="345" type="curve" smooth="yes"/>
      <point x="417" y="388"/>
      <point x="500" y="446"/>
      <point x="500" y="554" type="curve" smooth="yes"/>
      <point x="500" y="656"/>
      <point x="422" y="712"/>
      <point x="310" y="712" type="curve" smooth="yes"/>
      <point x="193" y="712"/>
      <point x="111" y="652"/>
      <point x="74" y="545" type="curve"/>
      <point x="158" y="521" type="line"/>
      <point x="182" y="590"/>
      <point x="224" y="634"/>
      <point x="298" y="634" type="curve" smooth="yes"/>
      <point x="364" y="634"/>
      <point x="408" y="603"/>
      <point x="408" y="544" type="curve" smooth="yes"/>
      <point x="408" y="491"/>
      <point x="370" y="451"/>
      <point x="307" y="407" type="curve" smooth="yes"/>
      <point x="232" y="355"/>
      <point x="198" y="320"/>
      <point x="187" y="247" type="curve" smooth="yes"/>
    </contour>
    <component base="period" xOffset="96"/>
  </outline>
</glyph>
<glyph name="at" format="2">
  <advance width="862"/>
  <unicode hex="0040"/>
  <outline>
    <contour>
      <point x="354" y="387"/>
      <point x="305" y="285"/>
      <point x="305" y="212" type="curve" smooth="yes"/>
      <point x="305" y="154"/>
      <point x="335" y="122"/>
      <point x="385" y="122" type="curve" smooth="yes"/>
      <point x="474" y="122"/>
      <point x="523" y="225"/>
      <point x="523" y="301" type="curve" smooth="yes"/>
      <point x="523" y="356"/>
      <point x="493" y="387"/>
      <point x="443" y="387" type="curve" smooth="yes"/>
    </contour>
    <contour>
      <point x="478" y="129" type="curve"/>
      <point x="498" y="128" type="line"/>
      <point x="465" y="79"/>
      <point x="418" y="52"/>
      <point x="359" y="52" type="curve" smooth="yes"/>
      <point x="275" y="52"/>
      <point x="216" y="104"/>
      <point x="216" y="197" type="curve" smooth="yes"/>
      <point x="216" y="317"/>
      <point x="305" y="457"/>
      <point x="442" y="457" type="curve" smooth="yes"/>
      <point x="507" y="457"/>
      <point x="557" y="425"/>
      <point x="561" y="374" type="curve"/>
      <point x="549" y="375" type="line"/>
      <point x="570" y="451" type="line"/>
      <point x="654" y="451" type="line"/>
      <point x="578" y="180" type="line" smooth="yes"/>
      <point x="575" y="169"/>
      <point x="574" y="163"/>
      <point x="574" y="157" type="curve" smooth="yes"/>
      <point x="574" y="136"/>
      <point x="587" y="126"/>
      <point x="609" y="126" type="curve" smooth="yes"/>
      <point x="694" y="126"/>
      <point x="756" y="240"/>
      <point x="756" y="352" type="curve" smooth="yes"/>
      <point x="756" y="487"/>
      <point x="663" y="566"/>
      <point x="509" y="566" type="curve" smooth="yes"/>
      <point x="267" y="566"/>
      <point x="107" y="373"/>
      <point x="107" y="174" type="curve" smooth="yes"/>
      <point x="107" y="28"/>
      <point x="193" y="-60"/>
      <point x="377" y="-60" type="curve" smooth="yes"/>
      <point x="458" y="-60"/>
      <point x="532" y="-40"/>
      <point x="606" y="-7" type="curve"/>
      <point x="622" y="-70" type="line"/>
      <point x="547" y="-108"/>
      <point x="456" y="-129"/>
      <point x="368" y="-129" type="curve" smooth="yes"/>
      <point x="151" y="-129"/>
      <point x="31" y="-19"/>
      <point x="31" y="162" type="curve" smooth="yes"/>
      <point x="31" y="411"/>
      <point x="225" y="635"/>
      <point x="518" y="635" type="curve" smooth="yes"/>
      <point x="680" y="635"/>
      <point x="832" y="549"/>
      <point x="832" y="362" type="curve" smooth="yes"/>
      <point x="832" y="188"/>
      <point x="734" y="52"/>
      <point x="583" y="52" type="curve" smooth="yes"/>
      <point x="521.5730455175365" y="52.0"/>
      <point x="477" y="83"/>
    </contour>
  </outline>
</glyph>
<glyph name="A" format="2">
  <advance width="670"/>
  <unicode hex="0041"/>
  <anchor x="334" y="700" name="center"/>
  <anchor x="646" y="0" name="ogonek"/>
  <outline>
    <contour>
      <point x="169" y="289" type="line"/>
      <point x="155" y="210" type="line"/>
      <point x="497" y="210" type="line"/>
      <point x="511" y="289" type="line"/>
    </contour>
    <contour>
      <point x="512" y="0" type="line"/>
      <point x="603" y="0" type="line"/>
      <point x="461" y="700" type="line"/>
      <point x="369" y="700" type="line"/>
      <point x="-19" y="0" type="line"/>
      <point x="79" y="0" type="line"/>
      <point x="427" y="632" type="line"/>
      <point x="386" y="632" type="line"/>
    </contour>
  </outline>
</glyph>
<glyph name="E" format="2">
  <advance width="670"/>
  <unicode hex="0045"/>
  <guideline x="351" y="848" angle="90" name="center" identifier="Pj9EjChW0o"/>
  <anchor x="539" y="0" name="ogonek"/>
  <outline>
    <contour>
      <point x="177" y="700" type="line"/>
      <point x="53" y="0" type="line"/>
      <point x="144" y="0" type="line"/>
      <point x="268" y="700" type="line"/>
    </contour>
    <contour>
      <point x="197" y="618" type="line"/>
      <point x="673" y="618" type="line"/>
      <point x="688" y="700" type="line"/>
      <point x="212" y="700" type="line"/>
    </contour>
    <contour>
      <point x="154" y="315" type="line"/>
      <point x="482" y="315" type="line"/>
      <point x="496" y="396" type="line"/>
      <point x="168" y="396" type="line"/>
    </contour>
    <contour>
      <point x="92" y="0" type="line"/>
      <point x="582" y="0" type="line"/>
      <point x="597" y="82" type="line"/>
      <point x="107" y="82" type="line"/>
    </contour>
  </outline>
</glyph>
<glyph name="G" format="2">
  <advance width="789"/>
  <unicode hex="0047"/>
  <guideline x="399" y="700" angle="90" name="center" identifier="3Ta8E1ingc"/>
  <outline>
    <contour>
      <point x="603" y="144" type="line"/>
      <point x="577" y="0" type="line"/>
      <point x="653" y="0" type="line"/>
      <point x="718" y="367" type="line"/>
      <point x="455" y="367" type="line"/>
      <point x="442" y="294" type="line"/>
      <point x="675" y="294" type="line"/>
      <point x="631" y="313" type="line"/>
      <point x="625" y="280" type="line" smooth="yes"/>
      <point x="602" y="151"/>
      <point x="492" y="66"/>
      <point x="365" y="66" type="curve" smooth="yes"/>
      <point x="238" y="66"/>
      <point x="155" y="156"/>
      <point x="155" y="298" type="curve" smooth="yes"/>
      <point x="155" y="464"/>
      <point x="272" y="630"/>
      <point x="449" y="630" type="curve" smooth="yes"/>
      <point x="573" y="630"/>
      <point x="637" y="554"/>
      <point x="646" y="465" type="curve"/>
      <point x="727" y="487" type="line"/>
      <point x="715" y="610"/>
      <point x="610" y="712"/>
      <point x="459" y="712" type="curve" smooth="yes"/>
      <point x="228" y="712"/>
      <point x="62" y="511"/>
      <point x="62" y="289" type="curve" smooth="yes"/>
      <point x="62" y="106"/>
      <point x="178" y="-12"/>
      <point x="350" y="-12" type="curve" smooth="yes"/>
      <point x="472" y="-12"/>
      <point x="559" y="46"/>
      <point x="624" y="135" type="curve"/>
    </contour>
  </outline>
</glyph>
<glyph name="I" format="2">
  <advance width="285"/>
  <unicode hex="0049"/>
  <anchor x="188" y="0" name="ogonek"/>
  <outline>
    <contour>
      <point x="177" y="700" type="line"/>
      <point x="53" y="0" type="line"/>
      <point x="144" y="0" type="line"/>
      <point x="268" y="700" type="line"/>
    </contour>
  </outline>
</glyph>
<glyph name="J" format="2">
  <advance width="605"/>
  <unicode hex="004A"/>
  <guideline x="468" y="700" angle="90" name="center" identifier="KvoJXLkZyT"/>
  <outline>
    <contour>
      <point x="506" y="214" type="curve" smooth="yes"/>
      <point x="592" y="700" type="line"/>
      <point x="502" y="700" type="line"/>
      <point x="417" y="221" type="line" smooth="yes"/>
      <point x="401" y="126"/>
      <point x="353" y="69"/>
      <point x="259" y="69" type="curve" smooth="yes"/>
      <point x="185" y="69"/>
      <point x="126" y="103"/>
      <point x="126" y="190" type="curve" smooth="yes"/>
      <point x="126" y="203"/>
      <point x="127" y="217"/>
      <point x="130" y="232" type="curve"/>
      <point x="37" y="243" type="line"/>
      <point x="34" y="223"/>
      <point x="32" y="204"/>
      <point x="32" y="186" type="curve" smooth="yes"/>
      <point x="32" y="60"/>
      <point x="115" y="-12"/>
      <point x="252" y="-12" type="curve" smooth="yes"/>
      <point x="401" y="-12"/>
      <point x="480" y="69"/>
    </contour>
  </outline>
</glyph>
<glyph name="K" format="2">
  <advance width="686"/>
  <unicode hex="004B"/>
  <guideline x="346.7728414312337" y="697.9009669494516" angle="90" name="center" identifier="v8QLljHLlV"/>
  <outline>
    <contour>
      <point x="149" y="293" type="line"/>
      <point x="138" y="183" type="line"/>
      <point x="308" y="336" type="line"/>
      <point x="337" y="360" type="line"/>
      <point x="716" y="700" type="line"/>
      <point x="595" y="700" type="line"/>
    </contour>
    <contour>
      <point x="177" y="700" type="line"/>
      <point x="53" y="0" type="line"/>
      <point x="144" y="0" type="line"/>
      <point x="268" y="700" type="line"/>
    </contour>
    <contour>
      <point x="258" y="355" type="line"/>
      <point x="518" y="0" type="line"/>
      <point x="627" y="0" type="line"/>
      <point x="321" y="416" type="line"/>
    </contour>
  </outline>
</glyph>
<glyph name="L" format="2">
  <advance width="630"/>
  <unicode hex="004C"/>
  <guideline x="142" y="700" angle="90" name="acute" identifier="V6HVXnwLb1"/>
  <anchor x="362" y="700" name="caronalt"/>
  <outline>
    <contour>
      <point x="177" y="700" type="line"/>
      <point x="268" y="700" type="line"/>
      <point x="144" y="0" type="line"/>
      <point x="53" y="0" type="line"/>
    </contour>
    <contour>
      <point x="88" y="0" type="line"/>
      <point x="103" y="82" type="line"/>
      <point x="562" y="82" type="line"/>
      <point x="547" y="0" type="line"/>
    </contour>
  </outline>
</glyph>
<glyph name="P" format="2">
  <advance width="650"/>
  <unicode hex="0050"/>
  <guideline x="334" y="700" angle="90" name="center" identifier="DliRjF6wWD"/>
  <outline>
    <contour>
      <point x="177" y="700" type="line"/>
      <point x="53" y="0" type="line"/>
      <point x="144" y="0" type="line"/>
      <point x="268" y="700" type="line"/>
    </contour>
    <contour>
      <point x="464" y="619" type="line" smooth="yes"/>
      <point x="534" y="619"/>
      <point x="574" y="591"/>
      <point x="574" y="526" type="curve" smooth="yes"/>
      <point x="574" y="457"/>
      <point x="530" y="397"/>
      <point x="424" y="397" type="curve" smooth="yes"/>
      <point x="164" y="397" type="line"/>
      <point x="150" y="316" type="line"/>
      <point x="420" y="316" type="line" smooth="yes"/>
      <point x="593" y="316"/>
      <point x="666" y="422"/>
      <point x="666" y="531" type="curve" smooth="yes"/>
      <point x="666" y="637"/>
      <point x="590" y="700"/>
      <point x="481" y="700" type="curve" smooth="yes"/>
      <point x="219" y="700" type="line"/>
      <point x="205" y="619" type="line"/>
    </contour>
  </outline>
</glyph>
<glyph name="Q" format="2">
  <advance width="786"/>
  <unicode hex="0051"/>
  <outline>
    <contour>
      <point x="542" y="-109" type="line"/>
      <point x="521" y="-111"/>
      <point x="506" y="-112"/>
      <point x="492" y="-112" type="curve" smooth="yes"/>
      <point x="422" y="-112"/>
      <point x="395" y="-93"/>
      <point x="395" y="-51" type="curve" smooth="yes"/>
      <point x="395" y="-44"/>
      <point x="396" y="-37"/>
      <point x="397" y="-29" type="curve" smooth="yes"/>
      <point x="407" y="25" type="line"/>
      <point x="317" y="28" type="line"/>
      <point x="305" y="-39" type="line" smooth="yes"/>
      <point x="303" y="-49"/>
      <point x="302" y="-59"/>
      <point x="302" y="-69" type="curve" smooth="yes"/>
      <point x="302" y="-147"/>
      <point x="363" y="-186"/>
      <point x="464" y="-186" type="curve" smooth="yes"/>
      <point x="482" y="-186"/>
      <point x="506" y="-185"/>
      <point x="529" y="-182" type="curve"/>
    </contour>
    <contour>
      <point x="752" y="591"/>
      <point x="633" y="712"/>
      <point x="455" y="712" type="curve" smooth="yes"/>
      <point x="217" y="712"/>
      <point x="62" y="511"/>
      <point x="62" y="289" type="curve" smooth="yes"/>
      <point x="62" y="109"/>
      <point x="180" y="-12"/>
      <point x="359" y="-12" type="curve" smooth="yes"/>
      <point x="597" y="-12"/>
      <point x="752" y="189"/>
      <point x="752" y="412" type="curve" smooth="yes"/>
    </contour>
    <contour>
      <point x="238" y="69"/>
      <point x="155" y="157"/>
      <point x="155" y="295" type="curve" smooth="yes"/>
      <point x="155" y="465"/>
      <point x="269" y="631"/>
      <point x="447" y="631" type="curve" smooth="yes"/>
      <point x="576" y="631"/>
      <point x="659" y="543"/>
      <point x="659" y="406" type="curve" smooth="yes"/>
      <point x="659" y="235"/>
      <point x="545" y="69"/>
      <point x="367" y="69" type="curve" smooth="yes"/>
    </contour>
  </outline>
</glyph>
<glyph name="S" format="2">
  <advance width="654"/>
  <unicode hex="0053"/>
  <guideline x="324" y="712" angle="90" name="center" identifier="M5YQhG4xdn"/>
  <outline>
    <contour>
      <point x="32" y="228" type="line"/>
      <point x="31" y="220"/>
      <point x="30" y="211"/>
      <point x="30" y="202" type="curve" smooth="yes"/>
      <point x="30" y="75"/>
      <point x="128" y="-12"/>
      <point x="296" y="-12" type="curve" smooth="yes"/>
      <point x="478" y="-12"/>
      <point x="585" y="80"/>
      <point x="585" y="218" type="curve"/>
      <point x="585" y="305"/>
      <point x="530" y="356"/>
      <point x="418" y="380" type="curve" smooth="yes"/>
      <point x="315" y="402" type="line" smooth="yes"/>
      <point x="225" y="421"/>
      <point x="189" y="446"/>
      <point x="189" y="500" type="curve" smooth="yes"/>
      <point x="189" y="575"/>
      <point x="264" y="632"/>
      <point x="369" y="632" type="curve" smooth="yes"/>
      <point x="467" y="632"/>
      <point x="525" y="579"/>
      <point x="525" y="512" type="curve" smooth="yes"/>
      <point x="525" y="508"/>
      <point x="525" y="506"/>
      <point x="524" y="499" type="curve"/>
      <point x="619" y="493" type="line"/>
      <point x="620" y="501"/>
      <point x="620" y="503"/>
      <point x="620" y="510" type="curve" smooth="yes"/>
      <point x="620" y="619"/>
      <point x="531" y="712"/>
      <point x="379" y="712" type="curve" smooth="yes"/>
      <point x="219" y="712"/>
      <point x="97" y="624"/>
      <point x="97" y="487" type="curve" smooth="yes"/>
      <point x="97" y="394"/>
      <point x="157" y="345"/>
      <point x="275" y="320" type="curve" smooth="yes"/>
      <point x="378" y="298" type="line" smooth="yes"/>
      <point x="455" y="282"/>
      <point x="491" y="255"/>
      <point x="491" y="201" type="curve" smooth="yes"/>
      <point x="491" y="123"/>
      <point x="417" y="68"/>
      <point x="304" y="68" type="curve" smooth="yes"/>
      <point x="186" y="68"/>
      <point x="124" y="124"/>
      <point x="129" y="221" type="curve"/>
    </contour>
  </outline>
</glyph>
<glyph name="U" format="2">
  <advance width="736"/>
  <unicode hex="0055"/>
  <anchor x="571" y="700" name="horn"/>
  <outline>
    <contour>
      <point x="644" y="248" type="curve" smooth="yes"/>
      <point x="724" y="700" type="line"/>
      <point x="634" y="700" type="line"/>
      <point x="556" y="257" type="line" smooth="yes"/>
      <point x="536" y="141"/>
      <point x="465" y="71"/>
      <point x="348" y="71" type="curve" smooth="yes"/>
      <point x="243" y="71"/>
      <point x="183" y="128"/>
      <point x="183" y="223" type="curve" smooth="yes"/>
      <point x="183" y="238"/>
      <point x="184" y="253"/>
      <point x="187" y="270" type="curve" smooth="yes"/>
      <point x="263" y="700" type="line"/>
      <point x="172" y="700" type="line"/>
      <point x="95" y="267" type="line" smooth="yes"/>
      <point x="92" y="247"/>
      <point x="90" y="229"/>
      <point x="90" y="211" type="curve" smooth="yes"/>
      <point x="90" y="77"/>
      <point x="183" y="-12"/>
      <point x="340" y="-12" type="curve" smooth="yes"/>
      <point x="510" y="-12"/>
      <point x="615" y="84"/>
    </contour>
  </outline>
</glyph>
<glyph name="V" format="2">
  <advance width="671"/>
  <unicode hex="0056"/>
  <outline>
    <contour>
      <point x="194" y="700" type="line"/>
      <point x="103" y="700" type="line"/>
      <point x="244" y="0" type="line"/>
      <point x="342" y="0" type="line"/>
      <point x="726" y="700" type="line"/>
      <point x="628" y="700" type="line"/>
      <point x="283" y="60" type="line"/>
      <point x="318" y="60" type="line"/>
    </contour>
  </outline>
</glyph>
<glyph name="W" format="2">
  <advance width="936"/>
  <unicode hex="0057"/>
  <outline>
    <contour>
      <point x="679" y="0" type="line"/>
      <point x="994" y="700" type="line"/>
      <point x="894" y="700" type="line"/>
      <point x="607" y="36" type="line"/>
      <point x="658" y="36" type="line"/>
      <point x="593" y="700" type="line"/>
      <point x="494" y="700" type="line"/>
      <point x="197" y="36" type="line"/>
      <point x="249" y="36" type="line"/>
      <point x="192" y="700" type="line"/>
      <point x="102" y="700" type="line"/>
      <point x="170" y="0" type="line"/>
      <point x="266" y="0" type="line"/>
      <point x="556" y="647" type="line"/>
      <point x="520" y="647" type="line"/>
      <point x="583" y="0" type="line"/>
    </contour>
  </outline>
</glyph>
<glyph name="backslash" format="2">
  <advance width="453"/>
  <unicode hex="005C"/>
  <outline>
    <contour>
      <point x="174" y="745" type="line"/>
      <point x="410" y="-113" type="line"/>
      <point x="326" y="-113" type="line"/>
      <point x="90" y="745" type="line"/>
    </contour>
  </outline>
</glyph>
<glyph name="asciicircum" format="2">
  <advance width="584"/>
  <unicode hex="005E"/>
  <outline>
    <contour>
      <point x="403" y="700" type="line"/>
      <point x="319" y="700" type="line"/>
      <point x="61" y="376" type="line"/>
      <point x="160" y="376" type="line"/>
      <point x="380" y="652" type="line"/>
      <point x="336" y="652" type="line"/>
      <point x="458" y="376" type="line"/>
      <point x="545" y="376" type="line"/>
    </contour>
  </outline>
</glyph>
<glyph name="underscore" format="2">
  <advance width="426"/>
  <unicode hex="005F"/>
  <outline>
    <contour>
      <point x="-60" y="-140" type="line"/>
      <point x="346" y="-140" type="line"/>
      <point x="358" y="-70" type="line"/>
      <point x="-48" y="-70" type="line"/>
    </contour>
  </outline>
</glyph>
<glyph name="a" format="2">
  <advance width="535"/>
  <unicode hex="0061"/>
  <anchor x="496" y="-3" name="ogonek"/>
  <outline>
    <contour>
      <point x="345" y="96" type="line"/>
      <point x="344" y="87"/>
      <point x="343" y="79"/>
      <point x="343" y="71" type="curve" smooth="yes"/>
      <point x="343" y="10"/>
      <point x="382" y="-10"/>
      <point x="426" y="-10" type="curve" smooth="yes"/>
      <point x="434" y="-10"/>
      <point x="441" y="-10"/>
      <point x="452" y="-8" type="curve"/>
      <point x="464" y="64" type="line"/>
      <point x="461" y="64"/>
      <point x="456" y="64"/>
      <point x="452" y="64" type="curve" smooth="yes"/>
      <point x="434" y="64"/>
      <point x="427" y="74"/>
      <point x="427" y="90" type="curve" smooth="yes"/>
      <point x="427" y="93"/>
      <point x="427" y="94"/>
      <point x="428" y="100" type="curve" smooth="yes"/>
      <point x="471" y="339" type="line" smooth="yes"/>
      <point x="473" y="351"/>
      <point x="474" y="362"/>
      <point x="474" y="372" type="curve" smooth="yes"/>
      <point x="474" y="455"/>
      <point x="411" y="502"/>
      <point x="298" y="502" type="curve" smooth="yes"/>
      <point x="167" y="502"/>
      <point x="107" y="428"/>
      <point x="90" y="355" type="curve"/>
      <point x="176" y="339" type="line"/>
      <point x="187" y="385"/>
      <point x="207" y="429"/>
      <point x="289" y="429" type="curve" smooth="yes"/>
      <point x="355" y="429"/>
      <point x="386" y="405"/>
      <point x="386" y="362" type="curve" smooth="yes"/>
      <point x="386" y="354"/>
      <point x="386" y="348"/>
      <point x="384" y="338" type="curve" smooth="yes"/>
      <point x="355" y="174" type="line" smooth="yes"/>
      <point x="344" y="113"/>
      <point x="278" y="59"/>
      <point x="200" y="59" type="curve" smooth="yes"/>
      <point x="149" y="59"/>
      <point x="118" y="81"/>
      <point x="118" y="128" type="curve" smooth="yes"/>
      <point x="118" y="181"/>
      <point x="157" y="215"/>
      <point x="228" y="221" type="curve" smooth="yes"/>
      <point x="399" y="237" type="line"/>
      <point x="411" y="302" type="line"/>
      <point x="225" y="286" type="line" smooth="yes"/>
      <point x="110" y="276"/>
      <point x="27" y="222"/>
      <point x="27" y="120" type="curve" smooth="yes"/>
      <point x="27" y="36"/>
      <point x="87" y="-12"/>
      <point x="180" y="-12" type="curve" smooth="yes"/>
      <point x="262" y="-12"/>
      <point x="324" y="27"/>
      <point x="366" y="89" type="curve"/>
    </contour>
  </outline>
</glyph>
<glyph name="k" format="2">
  <advance width="534"/>
  <unicode hex="006B"/>
  <guideline x="267" y="68" angle="90" name="center" identifier="GGDAgUW7dH"/>
  <outline>
    <contour>
      <point x="36" y="0" type="line"/>
      <point x="124" y="0" type="line"/>
      <point x="248" y="700" type="line"/>
      <point x="160" y="700" type="line"/>
    </contour>
    <contour>
      <point x="117" y="236" type="line"/>
      <point x="108" y="144" type="line"/>
      <point x="250" y="258" type="line"/>
      <point x="282" y="275" type="line"/>
      <point x="548" y="490" type="line"/>
      <point x="433" y="490" type="line"/>
    </contour>
    <contour>
      <point x="216" y="266" type="line"/>
      <point x="380" y="0" type="line"/>
      <point x="476" y="0" type="line"/>
      <point x="281" y="316" type="line"/>
    </contour>
  </outline>
</glyph>
<glyph name="l" format="2">
  <advance width="250"/>
  <unicode hex="006C"/>
  <outline>
    <contour>
      <point x="161" y="700" type="line"/>
      <point x="37" y="0" type="line"/>
      <point x="125" y="0" type="line"/>
      <point x="249" y="700" type="line"/>
    </contour>
  </outline>
</glyph>
<glyph name="m" format="2">
  <advance width="838"/>
  <unicode hex="006D"/>
  <outline>
    <contour>
      <point x="123" y="490" type="line"/>
      <point x="37" y="0" type="line"/>
      <point x="125" y="0" type="line"/>
      <point x="179" y="309" type="line" smooth="yes"/>
      <point x="192" y="384"/>
      <point x="246" y="431"/>
      <point x="307" y="431" type="curve" smooth="yes"/>
      <point x="361" y="431"/>
      <point x="388" y="394"/>
      <point x="388" y="343" type="curve" smooth="yes"/>
      <point x="388" y="333"/>
      <point x="387" y="323"/>
      <point x="385" y="313" type="curve" smooth="yes"/>
      <point x="330" y="0" type="line"/>
      <point x="418" y="0" type="line"/>
      <point x="474" y="318" type="line" smooth="yes"/>
      <point x="486" y="388"/>
      <point x="540" y="432"/>
      <point x="599" y="432" type="curve" smooth="yes"/>
      <point x="655" y="432"/>
      <point x="681" y="392"/>
      <point x="681" y="342" type="curve" smooth="yes"/>
      <point x="681" y="332"/>
      <point x="680" y="322"/>
      <point x="678" y="312" type="curve" smooth="yes"/>
      <point x="623" y="0" type="line"/>
      <point x="711" y="0" type="line"/>
      <point x="769" y="327" type="line" smooth="yes"/>
      <point x="771" y="340"/>
      <point x="771" y="349"/>
      <point x="771" y="360" type="curve" smooth="yes"/>
      <point x="771" y="439"/>
      <point x="722" y="502"/>
      <point x="636" y="502" type="curve" smooth="yes"/>
      <point x="575" y="502"/>
      <point x="513" y="471"/>
      <point x="470" y="418" type="curve"/>
      <point x="452" y="468"/>
      <point x="408" y="501"/>
      <point x="346" y="501" type="curve" smooth="yes"/>
      <point x="294" y="501"/>
      <point x="242" y="477"/>
      <point x="201" y="436" type="curve"/>
      <point x="211" y="490" type="line"/>
    </contour>
  </outline>
</glyph>
<glyph name="n" format="2">
  <advance width="556"/>
  <unicode hex="006E"/>
  <guideline x="280" y="490" angle="90" name="center" identifier="iL8doH8ZXN"/>
  <outline>
    <contour>
      <point x="123" y="490" type="line"/>
      <point x="37" y="0" type="line"/>
      <point x="125" y="0" type="line"/>
      <point x="180" y="315" type="line" smooth="yes"/>
      <point x="193" y="388"/>
      <point x="248" y="431"/>
      <point x="314" y="431" type="curve" smooth="yes"/>
      <point x="376" y="431"/>
      <point x="404" y="392"/>
      <point x="404" y="342" type="curve" smooth="yes"/>
      <point x="404" y="333"/>
      <point x="403" y="323"/>
      <point x="401" y="313" type="curve" smooth="yes"/>
      <point x="346" y="0" type="line"/>
      <point x="434" y="0" type="line"/>
      <point x="490" y="322" type="line" smooth="yes"/>
      <point x="492" y="334"/>
      <point x="493" y="345"/>
      <point x="493" y="356" type="curve" smooth="yes"/>
      <point x="493" y="434"/>
      <point x="442" y="502"/>
      <point x="351" y="502" type="curve" smooth="yes"/>
      <point x="279" y="502"/>
      <point x="213" y="461"/>
      <point x="171" y="398" type="curve"/>
      <point x="195" y="398" type="line"/>
      <point x="211" y="490" type="line"/>
    </contour>
  </outline>
</glyph>
<glyph name="o" format="2">
  <advance width="566"/>
  <unicode hex="006F"/>
  <anchor x="352" y="491" name="horn"/>
  <outline>
    <contour>
      <point x="41" y="68"/>
      <point x="128" y="-12"/>
      <point x="248" y="-12" type="curve" smooth="yes"/>
      <point x="412" y="-12"/>
      <point x="525" y="127"/>
      <point x="525" y="291" type="curve" smooth="yes"/>
      <point x="525" y="422"/>
      <point x="438" y="502"/>
      <point x="318" y="502" type="curve" smooth="yes"/>
      <point x="154" y="502"/>
      <point x="41" y="363"/>
      <point x="41" y="200" type="curve" smooth="yes"/>
    </contour>
    <contour>
      <point x="390" y="432"/>
      <point x="436" y="379"/>
      <point x="436" y="288" type="curve" smooth="yes"/>
      <point x="436" y="180"/>
      <point x="375" y="58"/>
      <point x="256" y="58" type="curve" smooth="yes"/>
      <point x="177" y="58"/>
      <point x="130" y="111"/>
      <point x="130" y="203" type="curve" smooth="yes"/>
      <point x="130" y="309"/>
      <point x="191" y="432"/>
      <point x="310" y="432" type="curve" smooth="yes"/>
    </contour>
  </outline>
</glyph>
<glyph name="r" format="2">
  <advance width="375"/>
  <unicode hex="0072"/>
  <guideline x="192" y="602" angle="90" name="top" identifier="I0YFuvHdCK"/>
  <guideline x="125" y="7" angle="90" name="stem" identifier="6m7QBjuOV4"/>
  <outline>
    <contour>
      <point x="167" y="241" type="line" smooth="yes"/>
      <point x="186" y="350"/>
      <point x="264" y="408"/>
      <point x="339" y="408" type="curve" smooth="yes"/>
      <point x="349" y="408"/>
      <point x="363" y="407"/>
      <point x="373" y="404" type="curve"/>
      <point x="390" y="497" type="line"/>
      <point x="384" y="499"/>
      <point x="374" y="500"/>
      <point x="364" y="500" type="curve" smooth="yes"/>
      <point x="282" y="500"/>
      <point x="208" y="433"/>
      <point x="168" y="350" type="curve"/>
      <point x="187" y="350" type="line"/>
      <point x="211" y="490" type="line"/>
      <point x="123" y="490" type="line"/>
      <point x="37" y="0" type="line"/>
      <point x="125" y="0" type="line"/>
    </contour>
  </outline>
</glyph>
<glyph name="s" format="2">
  <advance width="509"/>
  <unicode hex="0073"/>
  <outline>
    <contour>
      <point x="31" y="164" type="line"/>
      <point x="30" y="158"/>
      <point x="30" y="151"/>
      <point x="30" y="144" type="curve" smooth="yes"/>
      <point x="30" y="51"/>
      <point x="102" y="-12"/>
      <point x="233" y="-12" type="curve" smooth="yes"/>
      <point x="395" y="-12"/>
      <point x="444" y="82"/>
      <point x="444" y="152" type="curve" smooth="yes"/>
      <point x="444" y="209"/>
      <point x="411" y="254"/>
      <point x="325" y="273" type="curve" smooth="yes"/>
      <point x="248" y="290" type="line" smooth="yes"/>
      <point x="187" y="303"/>
      <point x="163" y="317"/>
      <point x="163" y="351" type="curve" smooth="yes"/>
      <point x="163" y="396"/>
      <point x="204" y="435"/>
      <point x="280" y="435" type="curve" smooth="yes"/>
      <point x="349" y="435"/>
      <point x="386" y="402"/>
      <point x="386" y="358" type="curve" smooth="yes"/>
      <point x="386" y="355"/>
      <point x="386" y="352"/>
      <point x="386" y="349" type="curve"/>
      <point x="470" y="343" type="line"/>
      <point x="471" y="349"/>
      <point x="472" y="355"/>
      <point x="472" y="362" type="curve" smooth="yes"/>
      <point x="472" y="439"/>
      <point x="408" y="502"/>
      <point x="286" y="502" type="curve" smooth="yes"/>
      <point x="164" y="502"/>
      <point x="78" y="438"/>
      <point x="78" y="336" type="curve" smooth="yes"/>
      <point x="78" y="279"/>
      <point x="107" y="242"/>
      <point x="201" y="221" type="curve" smooth="yes"/>
      <point x="278" y="204" type="line" smooth="yes"/>
      <point x="336" y="191"/>
      <point x="356" y="170"/>
      <point x="356" y="136" type="curve" smooth="yes"/>
      <point x="356" y="91"/>
      <point x="322" y="55"/>
      <point x="241" y="55" type="curve" smooth="yes"/>
      <point x="161" y="55"/>
      <point x="121" y="88"/>
      <point x="121" y="142" type="curve" smooth="yes"/>
      <point x="121" y="145"/>
      <point x="121" y="148"/>
      <point x="122" y="154" type="curve"/>
    </contour>
  </outline>
</glyph>
<glyph name="t" format="2">
  <advance width="363"/>
  <unicode hex="0074"/>
  <guideline x="203" y="692" angle="90" name="center" identifier="NDE2RZEQuj"/>
  <anchor x="215" y="679" name="right"/>
  <outline>
    <contour>
      <point x="57" y="422" type="line"/>
      <point x="344" y="422" type="line"/>
      <point x="356" y="490" type="line"/>
      <point x="69" y="490" type="line"/>
    </contour>
    <contour>
      <point x="90" y="106" type="line" smooth="yes"/>
      <point x="88" y="93"/>
      <point x="88" y="88"/>
      <point x="88" y="78" type="curve" smooth="yes"/>
      <point x="88" y="26"/>
      <point x="118" y="-12"/>
      <point x="203" y="-12" type="curve" smooth="yes"/>
      <point x="217" y="-12"/>
      <point x="246" y="-11"/>
      <point x="268" y="-7" type="curve"/>
      <point x="281" y="64" type="line"/>
      <point x="270" y="62"/>
      <point x="245" y="62"/>
      <point x="240" y="62" type="curve" smooth="yes"/>
      <point x="190" y="62"/>
      <point x="178" y="73"/>
      <point x="178" y="99" type="curve" smooth="yes"/>
      <point x="178" y="104"/>
      <point x="179" y="110"/>
      <point x="180" y="117" type="curve" smooth="yes"/>
      <point x="273" y="643" type="line"/>
      <point x="185" y="643" type="line"/>
    </contour>
  </outline>
</glyph>
<glyph name="v" format="2">
  <advance width="540"/>
  <unicode hex="0076"/>
  <outline>
    <contour>
      <point x="180" y="0" type="line"/>
      <point x="276" y="0" type="line"/>
      <point x="561" y="490" type="line"/>
      <point x="464" y="490" type="line"/>
      <point x="213" y="50" type="line"/>
      <point x="254" y="50" type="line"/>
      <point x="154" y="490" type="line"/>
      <point x="65" y="490" type="line"/>
    </contour>
  </outline>
</glyph>
<glyph name="x" format="2">
  <advance width="519"/>
  <unicode hex="0078"/>
  <outline>
    <contour>
      <point x="78" y="490" type="line"/>
      <point x="221" y="223" type="line"/>
      <point x="237" y="223" type="line"/>
      <point x="358" y="0" type="line"/>
      <point x="452" y="0" type="line"/>
      <point x="301" y="270" type="line"/>
      <point x="284" y="275" type="line"/>
      <point x="172" y="490" type="line"/>
    </contour>
    <contour>
      <point x="523" y="490" type="line"/>
      <point x="419" y="490" type="line"/>
      <point x="239" y="275" type="line"/>
      <point x="224" y="272" type="line"/>
      <point x="-19" y="0" type="line"/>
      <point x="87" y="0" type="line"/>
      <point x="284" y="224" type="line"/>
      <point x="291" y="221" type="line"/>
    </contour>
  </outline>
</glyph>
<glyph name="y" format="2">
  <advance width="539"/>
  <unicode hex="0079"/>
  <outline>
    <contour>
      <point x="160" y="-180" type="line"/>
      <point x="559" y="490" type="line"/>
      <point x="460" y="490" type="line"/>
      <point x="211" y="57" type="line"/>
      <point x="192" y="28" type="line"/>
      <point x="62" y="-180" type="line"/>
    </contour>
    <contour>
      <point x="65" y="490" type="line"/>
      <point x="200" y="-60" type="line"/>
      <point x="263" y="47" type="line"/>
      <point x="155" y="490" type="line"/>
    </contour>
  </outline>
</glyph>
<glyph name="z" format="2">
  <advance width="489"/>
  <unicode hex="007A"/>
  <outline>
    <contour>
      <point x="18" y="62" type="line"/>
      <point x="7" y="0" type="line"/>
      <point x="398" y="0" type="line"/>
      <point x="411" y="73" type="line"/>
      <point x="72" y="73" type="line"/>
      <point x="94" y="34" type="line"/>
      <point x="472" y="436" type="line"/>
      <point x="481" y="490" type="line"/>
      <point x="92" y="490" type="line"/>
      <point x="79" y="417" type="line"/>
      <point x="421" y="417" type="line"/>
      <point x="400" y="469" type="line"/>
    </contour>
  </outline>
</glyph>
<glyph name="braceleft" format="2">
  <advance width="370"/>
  <unicode hex="007B"/>
  <outline>
    <contour>
      <point x="201" y="166" type="line" smooth="yes"/>
      <point x="215" y="245"/>
      <point x="209" y="291"/>
      <point x="150" y="313" type="curve"/>
      <point x="217" y="331"/>
      <point x="237" y="375"/>
      <point x="251" y="454" type="curve" smooth="yes"/>
      <point x="274" y="581" type="line" smooth="yes"/>
      <point x="286" y="648"/>
      <point x="315" y="674"/>
      <point x="393" y="674" type="curve" smooth="yes"/>
      <point x="406" y="674" type="line"/>
      <point x="419" y="745" type="line"/>
      <point x="391" y="745" type="line" smooth="yes"/>
      <point x="264" y="745"/>
      <point x="203" y="686"/>
      <point x="183" y="571" type="curve" smooth="yes"/>
      <point x="159" y="436" type="line" smooth="yes"/>
      <point x="148" y="373"/>
      <point x="116" y="353"/>
      <point x="66" y="353" type="curve" smooth="yes"/>
      <point x="30" y="353" type="line"/>
      <point x="16" y="279" type="line"/>
      <point x="52" y="279" type="line" smooth="yes"/>
      <point x="102" y="279"/>
      <point x="126" y="255"/>
      <point x="115" y="192" type="curve" smooth="yes"/>
      <point x="95" y="75" type="line" smooth="yes"/>
      <point x="75" y="-41"/>
      <point x="97" y="-113"/>
      <point x="239" y="-113" type="curve" smooth="yes"/>
      <point x="267" y="-113" type="line"/>
      <point x="280" y="-42" type="line"/>
      <point x="267" y="-42" type="line" smooth="yes"/>
      <point x="188" y="-42"/>
      <point x="169" y="-18"/>
      <point x="182" y="56" type="curve" smooth="yes"/>
    </contour>
  </outline>
</glyph>
<glyph name="cent" format="2">
  <advance width="530"/>
  <unicode hex="00A2"/>
  <outline>
    <contour>
      <point x="176" y="-112" type="line"/>
      <point x="244" y="-112" type="line"/>
      <point x="369" y="597" type="line"/>
      <point x="301" y="597" type="line"/>
    </contour>
    <contour>
      <point x="507" y="338" type="line"/>
      <point x="498" y="441"/>
      <point x="424" y="502"/>
      <point x="316" y="502" type="curve" smooth="yes"/>
      <point x="146" y="502"/>
      <point x="43" y="362"/>
      <point x="43" y="198" type="curve" smooth="yes"/>
      <point x="43" y="67"/>
      <point x="124" y="-12"/>
      <point x="250" y="-12" type="curve" smooth="yes"/>
      <point x="352" y="-12"/>
      <point x="433" y="38"/>
      <point x="476" y="133" type="curve"/>
      <point x="397" y="160" type="line"/>
      <point x="371" y="94"/>
      <point x="324" y="57"/>
      <point x="258" y="57" type="curve" smooth="yes"/>
      <point x="178" y="57"/>
      <point x="132" y="111"/>
      <point x="132" y="202" type="curve" smooth="yes"/>
      <point x="132" y="307"/>
      <point x="187" y="431"/>
      <point x="310" y="431" type="curve" smooth="yes"/>
      <point x="382" y="431"/>
      <point x="423" y="392"/>
      <point x="427" y="320" type="curve"/>
    </contour>
  </outline>
</glyph>
<glyph name="sterling" format="2">
  <advance width="618"/>
  <unicode hex="00A3"/>
  <outline>
    <contour>
      <point x="441" y="266" type="line"/>
      <point x="73" y="266" type="line"/>
      <point x="85" y="336" type="line"/>
      <point x="453" y="336" type="line"/>
    </contour>
    <contour>
      <point x="40" y="77" type="line" smooth="yes"/>
      <point x="121" y="77"/>
      <point x="184" y="150"/>
      <point x="184" y="229" type="curve" smooth="yes"/>
      <point x="184" y="296"/>
      <point x="139" y="360"/>
      <point x="139" y="451" type="curve" smooth="yes"/>
      <point x="139" y="588"/>
      <point x="226" y="712"/>
      <point x="399" y="712" type="curve" smooth="yes"/>
      <point x="524" y="712"/>
      <point x="595" y="640"/>
      <point x="595" y="549" type="curve" smooth="yes"/>
      <point x="595" y="522"/>
      <point x="589" y="495"/>
      <point x="573" y="466" type="curve"/>
      <point x="491" y="474" type="line"/>
      <point x="500" y="489"/>
      <point x="508" y="509"/>
      <point x="508" y="534" type="curve" smooth="yes"/>
      <point x="508" y="586"/>
      <point x="472" y="634"/>
      <point x="391" y="634" type="curve" smooth="yes"/>
      <point x="281" y="634"/>
      <point x="230" y="555"/>
      <point x="230" y="459" type="curve" smooth="yes"/>
      <point x="230" y="377"/>
      <point x="275" y="310"/>
      <point x="275" y="237" type="curve" smooth="yes"/>
      <point x="275" y="160"/>
      <point x="228" y="88"/>
      <point x="125" y="58" type="curve"/>
      <point x="128" y="77" type="line"/>
      <point x="523" y="77" type="line"/>
      <point x="509" y="0" type="line"/>
      <point x="13" y="0" type="line"/>
      <point x="27" y="77" type="line"/>
    </contour>
  </outline>
</glyph>
<glyph name="yen" format="2">
  <advance width="628"/>
  <unicode hex="00A5"/>
  <outline>
    <contour>
      <point x="353" y="377.0" type="line"/>
      <point x="206" y="700.0" type="line"/>
      <point x="114" y="700.0" type="line"/>
      <point x="283" y="329.0" type="line"/>
      <point x="225" y="0.0" type="line"/>
      <point x="315" y="0.0" type="line"/>
      <point x="373" y="329.0" type="line"/>
      <point x="674" y="700.0" type="line"/>
      <point x="575" y="700.0" type="line"/>
      <point x="314" y="377.0" type="line"/>
    </contour>
    <contour>
      <point x="92" y="317.0" type="line"/>
      <point x="560" y="317.0" type="line"/>
      <point x="573" y="387.0" type="line"/>
      <point x="105" y="387.0" type="line"/>
    </contour>
    <contour>
      <point x="67" y="177.0" type="line"/>
      <point x="535" y="177.0" type="line"/>
      <point x="548" y="247.0" type="line"/>
      <point x="80" y="247.0" type="line"/>
    </contour>
  </outline>
</glyph>
<glyph name="brokenbar" format="2">
  <advance width="243"/>
  <unicode hex="00A6"/>
  <outline>
    <contour>
      <point x="169" y="745" type="line"/>
      <point x="104" y="377" type="line"/>
      <point x="187" y="377" type="line"/>
      <point x="252" y="745" type="line"/>
    </contour>
    <contour>
      <point x="82" y="255" type="line"/>
      <point x="17" y="-113" type="line"/>
      <point x="100" y="-113" type="line"/>
      <point x="165" y="255" type="line"/>
    </contour>
  </outline>
</glyph>
<glyph name="section" format="2">
  <advance width="531"/>
  <unicode hex="00A7"/>
  <outline>
    <contour>
      <point x="374" y="125" type="line"/>
      <point x="459" y="181"/>
      <point x="486" y="238"/>
      <point x="486" y="292" type="curve"/>
      <point x="486" y="354"/>
      <point x="451" y="399"/>
      <point x="367" y="432" type="curve" smooth="yes"/>
      <point x="285" y="464" type="line" smooth="yes"/>
      <point x="226" y="487"/>
      <point x="199" y="503"/>
      <point x="199" y="544" type="curve" smooth="yes"/>
      <point x="199" y="597"/>
      <point x="237" y="645"/>
      <point x="322" y="645" type="curve" smooth="yes"/>
      <point x="384" y="645"/>
      <point x="422" y="616"/>
      <point x="422" y="572" type="curve" smooth="yes"/>
      <point x="422" y="566"/>
      <point x="421" y="560"/>
      <point x="420" y="554" type="curve"/>
      <point x="504" y="545" type="line"/>
      <point x="505" y="552"/>
      <point x="506" y="560"/>
      <point x="506" y="567" type="curve" smooth="yes"/>
      <point x="506" y="656"/>
      <point x="442" y="712"/>
      <point x="328" y="712" type="curve" smooth="yes"/>
      <point x="198" y="712"/>
      <point x="114" y="639"/>
      <point x="114" y="530" type="curve"/>
      <point x="114" y="467"/>
      <point x="147" y="430"/>
      <point x="237" y="395" type="curve" smooth="yes"/>
      <point x="319" y="363" type="line" smooth="yes"/>
      <point x="374" y="342"/>
      <point x="397" y="316"/>
      <point x="397" y="277" type="curve" smooth="yes"/>
      <point x="397" y="249"/>
      <point x="387" y="211"/>
      <point x="320" y="162" type="curve"/>
    </contour>
    <contour>
      <point x="5" y="58" type="line"/>
      <point x="4" y="49"/>
      <point x="3" y="41"/>
      <point x="3" y="33" type="curve" smooth="yes"/>
      <point x="3" y="-66"/>
      <point x="85" y="-126"/>
      <point x="206" y="-126" type="curve" smooth="yes"/>
      <point x="361" y="-126"/>
      <point x="429" y="-37"/>
      <point x="429" y="55" type="curve" smooth="yes"/>
      <point x="429" y="121"/>
      <point x="389" y="164"/>
      <point x="305" y="197" type="curve" smooth="yes"/>
      <point x="223" y="229" type="line" smooth="yes"/>
      <point x="164" y="252"/>
      <point x="137" y="268"/>
      <point x="137" y="313" type="curve" smooth="yes"/>
      <point x="137" y="346"/>
      <point x="151" y="385"/>
      <point x="227" y="429" type="curve"/>
      <point x="180" y="470" type="line"/>
      <point x="84" y="417"/>
      <point x="52" y="350"/>
      <point x="52" y="296" type="curve" smooth="yes"/>
      <point x="52" y="241"/>
      <point x="83" y="195"/>
      <point x="175" y="159" type="curve" smooth="yes"/>
      <point x="257" y="127" type="line" smooth="yes"/>
      <point x="313" y="105"/>
      <point x="339" y="82"/>
      <point x="339" y="40" type="curve" smooth="yes"/>
      <point x="339" y="-15"/>
      <point x="307" y="-59"/>
      <point x="215" y="-59" type="curve" smooth="yes"/>
      <point x="139" y="-59"/>
      <point x="95" y="-30"/>
      <point x="95" y="29" type="curve" smooth="yes"/>
      <point x="95" y="34"/>
      <point x="95" y="39"/>
      <point x="96" y="45" type="curve"/>
    </contour>
  </outline>
</glyph>
<glyph name="ordfeminine" format="2">
  <advance width="405"/>
  <unicode hex="00AA"/>
  <outline>
    <contour>
      <point x="293" y="387" type="line"/>
      <point x="292" y="380"/>
      <point x="292" y="373"/>
      <point x="292" y="367" type="curve" smooth="yes"/>
      <point x="292" y="315"/>
      <point x="329" y="305"/>
      <point x="366" y="305" type="curve" smooth="yes"/>
      <point x="377" y="305"/>
      <point x="384" y="306"/>
      <point x="388" y="307" type="curve"/>
      <point x="399" y="370" type="line"/>
      <point x="397" y="370"/>
      <point x="394" y="370"/>
      <point x="391" y="370" type="curve" smooth="yes"/>
      <point x="376" y="370"/>
      <point x="370" y="377"/>
      <point x="370" y="388" type="curve" smooth="yes"/>
      <point x="370" y="391"/>
      <point x="370" y="393"/>
      <point x="371" y="398" type="curve" smooth="yes"/>
      <point x="403" y="581" type="line" smooth="yes"/>
      <point x="405" y="591"/>
      <point x="405" y="600"/>
      <point x="405" y="608" type="curve" smooth="yes"/>
      <point x="405" y="675"/>
      <point x="357" y="712"/>
      <point x="259" y="712" type="curve" smooth="yes"/>
      <point x="150" y="712"/>
      <point x="101" y="654"/>
      <point x="87" y="595" type="curve"/>
      <point x="166" y="581" type="line"/>
      <point x="175" y="615"/>
      <point x="195" y="648"/>
      <point x="254" y="648" type="curve" smooth="yes"/>
      <point x="303" y="648"/>
      <point x="328" y="628"/>
      <point x="328" y="594" type="curve" smooth="yes"/>
      <point x="328" y="590"/>
      <point x="328" y="585"/>
      <point x="327" y="580" type="curve" smooth="yes"/>
      <point x="304" y="451" type="line" smooth="yes"/>
      <point x="296" y="405"/>
      <point x="239" y="364"/>
      <point x="180" y="364" type="curve" smooth="yes"/>
      <point x="150" y="364"/>
      <point x="119" y="377"/>
      <point x="119" y="411" type="curve" smooth="yes"/>
      <point x="119" y="454"/>
      <point x="147" y="479"/>
      <point x="201" y="483" type="curve" smooth="yes"/>
      <point x="336" y="495" type="line"/>
      <point x="346" y="553" type="line"/>
      <point x="197" y="541" type="line" smooth="yes"/>
      <point x="101" y="533"/>
      <point x="39" y="482"/>
      <point x="39" y="402" type="curve" smooth="yes"/>
      <point x="39" y="341"/>
      <point x="85" y="301"/>
      <point x="167" y="301" type="curve" smooth="yes"/>
      <point x="234" y="301"/>
      <point x="281" y="333"/>
      <point x="315" y="382" type="curve"/>
    </contour>
  </outline>
</glyph>
<glyph name="logicalnot" format="2">
  <advance width="645"/>
  <unicode hex="00AC"/>
  <outline>
    <contour>
      <point x="70" y="301" type="line"/>
      <point x="556" y="301" type="line"/>
      <point x="523" y="338" type="line"/>
      <point x="474" y="60" type="line"/>
      <point x="552" y="60" type="line"/>
      <point x="608" y="377" type="line"/>
      <point x="83" y="377" type="line"/>
    </contour>
  </outline>
</glyph>
<glyph name="degree" format="2">
  <advance width="388"/>
  <unicode hex="00B0"/>
  <outline>
    <contour>
      <point x="222" y="410" type="curve" smooth="yes"/>
      <point x="316.0" y="410.0"/>
      <point x="393" y="482"/>
      <point x="393" y="580" type="curve" smooth="yes"/>
      <point x="393" y="655"/>
      <point x="338" y="708"/>
      <point x="262" y="708" type="curve" smooth="yes"/>
      <point x="168.0" y="708.0"/>
      <point x="91" y="636"/>
      <point x="91" y="538" type="curve" smooth="yes"/>
      <point x="91" y="463"/>
      <point x="146" y="410"/>
    </contour>
    <contour>
      <point x="231" y="476" type="curve" smooth="yes"/>
      <point x="190.0" y="476.0"/>
      <point x="161" y="504"/>
      <point x="161" y="545" type="curve" smooth="yes"/>
      <point x="161.0" y="600.0"/>
      <point x="205" y="642"/>
      <point x="253" y="642" type="curve" smooth="yes"/>
      <point x="294.0" y="642.0"/>
      <point x="323" y="614"/>
      <point x="323" y="573" type="curve" smooth="yes"/>
      <point x="323.0" y="518.0"/>
      <point x="279" y="476"/>
    </contour>
  </outline>
</glyph>
<glyph name="periodcentered" format="2">
  <advance width="265"/>
  <unicode hex="00B7"/>
  <outline>
    <contour>
      <point x="102" y="374" type="line"/>
      <point x="80" y="250" type="line"/>
      <point x="185" y="250" type="line"/>
      <point x="207" y="374" type="line"/>
    </contour>
  </outline>
</glyph>
<glyph name="ordmasculine" format="2">
  <advance width="412"/>
  <unicode hex="00BA"/>
  <outline>
    <contour>
      <point x="50" y="365"/>
      <point x="118" y="301"/>
      <point x="219" y="301" type="curve" smooth="yes"/>
      <point x="356.0" y="301.0"/>
      <point x="440.0" y="420"/>
      <point x="440" y="542" type="curve" smooth="yes"/>
      <point x="440" y="648"/>
      <point x="372" y="712"/>
      <point x="271" y="712" type="curve" smooth="yes"/>
      <point x="134.0" y="712.0"/>
      <point x="50.0" y="593"/>
      <point x="50" y="471" type="curve" smooth="yes"/>
    </contour>
    <contour>
      <point x="325.0" y="646.0"/>
      <point x="361" y="606"/>
      <point x="361" y="538" type="curve" smooth="yes"/>
      <point x="361.0" y="456.0"/>
      <point x="314" y="367"/>
      <point x="225" y="367" type="curve" smooth="yes"/>
      <point x="165.0" y="367.0"/>
      <point x="129" y="406"/>
      <point x="129" y="474" type="curve" smooth="yes"/>
      <point x="129.0" y="556.0"/>
      <point x="176" y="646.0"/>
      <point x="265" y="646" type="curve" smooth="yes"/>
    </contour>
  </outline>
</glyph>
<glyph name="AE" format="2">
  <advance width="1092"/>
  <unicode hex="00C6"/>
  <guideline x="697" y="700" angle="90" name="center" identifier="GYOTN37zmf"/>
  <outline>
    <contour>
      <point x="599" y="700" type="line"/>
      <point x="475" y="0" type="line"/>
      <point x="566" y="0" type="line"/>
      <point x="690" y="700" type="line"/>
    </contour>
    <contour>
      <point x="619" y="618" type="line"/>
      <point x="1095" y="618" type="line"/>
      <point x="1110" y="700" type="line"/>
      <point x="634" y="700" type="line"/>
    </contour>
    <contour>
      <point x="576" y="315" type="line"/>
      <point x="904" y="315" type="line"/>
      <point x="918" y="396" type="line"/>
      <point x="590" y="396" type="line"/>
    </contour>
    <contour>
      <point x="514" y="0" type="line"/>
      <point x="1004" y="0" type="line"/>
      <point x="1019" y="82" type="line"/>
      <point x="529" y="82" type="line"/>
    </contour>
    <contour>
      <point x="577" y="321" type="line"/>
      <point x="225" y="321" type="line"/>
      <point x="211" y="241" type="line"/>
      <point x="563" y="241" type="line"/>
    </contour>
    <contour>
      <point x="45" y="0" type="line"/>
      <point x="549" y="618" type="line"/>
      <point x="602" y="618" type="line"/>
      <point x="617" y="700" type="line"/>
      <point x="512" y="700" type="line"/>
      <point x="-59" y="0" type="line"/>
    </contour>
  </outline>
</glyph>
<glyph name="Icircumflex" format="2">
  <advance width="285"/>
  <unicode hex="00CE"/>
  <outline>
    <contour>
      <point x="213" y="892.0" type="line"/>
      <point x="86" y="771.0" type="line"/>
      <point x="163" y="771.0" type="line"/>
      <point x="275" y="855.0" type="line"/>
      <point x="233" y="855.0" type="line"/>
      <point x="315" y="771.0" type="line"/>
      <point x="386" y="771.0" type="line"/>
      <point x="303" y="892.0" type="line"/>
    </contour>
    <component base="I"/>
  </outline>
</glyph>
<glyph name="Oslash" format="2">
  <advance width="786"/>
  <unicode hex="00D8"/>
  <anchor x="394" y="700" name="top"/>
  <outline>
    <contour>
      <point x="19" y="22" type="line"/>
      <point x="73" y="-32" type="line"/>
      <point x="794" y="679" type="line"/>
      <point x="740" y="733" type="line"/>
    </contour>
    <component base="O"/>
  </outline>
</glyph>
<glyph name="germandbls" format="2">
  <advance width="570"/>
  <unicode hex="00DF"/>
  <outline>
    <contour>
      <point x="130" y="524" type="curve" smooth="yes"/>
      <point x="37" y="0" type="line"/>
      <point x="125" y="0" type="line"/>
      <point x="218" y="523" type="line" smooth="yes"/>
      <point x="230" y="589"/>
      <point x="277" y="637"/>
      <point x="348" y="637" type="curve" smooth="yes"/>
      <point x="413" y="637"/>
      <point x="453" y="599"/>
      <point x="453" y="540" type="curve" smooth="yes"/>
      <point x="453" y="476"/>
      <point x="411" y="411"/>
      <point x="310" y="411" type="curve" smooth="yes"/>
      <point x="277" y="411" type="line"/>
      <point x="263" y="335" type="line"/>
      <point x="291" y="335" type="line" smooth="yes"/>
      <point x="372" y="335"/>
      <point x="428" y="290"/>
      <point x="428" y="205" type="curve" smooth="yes"/>
      <point x="428" y="129"/>
      <point x="383" y="64"/>
      <point x="290" y="64" type="curve"/>
      <point x="255" y="64"/>
      <point x="229" y="73"/>
      <point x="213" y="80" type="curve"/>
      <point x="199" y="4" type="line"/>
      <point x="214" y="-2"/>
      <point x="243" y="-12"/>
      <point x="289" y="-12" type="curve" smooth="yes"/>
      <point x="449" y="-12"/>
      <point x="518" y="104"/>
      <point x="518" y="212" type="curve" smooth="yes"/>
      <point x="518" y="309"/>
      <point x="465" y="359"/>
      <point x="393" y="376" type="curve"/>
      <point x="392" y="370" type="line"/>
      <point x="472" y="389"/>
      <point x="543" y="453"/>
      <point x="543" y="553" type="curve" smooth="yes"/>
      <point x="543" y="647"/>
      <point x="476" y="712"/>
      <point x="359" y="712" type="curve" smooth="yes"/>
      <point x="240" y="712"/>
      <point x="150" y="637"/>
    </contour>
  </outline>
</glyph>
<glyph name="eth" format="2">
  <advance width="566"/>
  <unicode hex="00F0"/>
  <outline>
    <contour>
      <point x="384" y="422"/>
      <point x="427" y="369"/>
      <point x="427" y="280" type="curve" smooth="yes"/>
      <point x="427" y="171"/>
      <point x="367" y="58"/>
      <point x="252" y="58" type="curve" smooth="yes"/>
      <point x="168" y="58"/>
      <point x="124" y="110"/>
      <point x="124" y="199" type="curve" smooth="yes"/>
      <point x="124" y="308"/>
      <point x="185" y="422"/>
      <point x="300" y="422" type="curve" smooth="yes"/>
    </contour>
    <contour>
      <point x="35" y="66"/>
      <point x="119" y="-12"/>
      <point x="246" y="-12" type="curve" smooth="yes"/>
      <point x="439" y="-12"/>
      <point x="524" y="157"/>
      <point x="524" y="353" type="curve" smooth="yes"/>
      <point x="524" y="533"/>
      <point x="412" y="658"/>
      <point x="289" y="713" type="curve"/>
      <point x="192" y="693" type="line"/>
      <point x="351" y="619"/>
      <point x="415" y="529"/>
      <point x="436" y="417" type="curve"/>
      <point x="445" y="417" type="line"/>
      <point x="408" y="477"/>
      <point x="356" y="490"/>
      <point x="306" y="490" type="curve" smooth="yes"/>
      <point x="129" y="490"/>
      <point x="35" y="345"/>
      <point x="35" y="196" type="curve" smooth="yes"/>
    </contour>
    <contour>
      <point x="202" y="518" type="line"/>
      <point x="526" y="637" type="line"/>
      <point x="508" y="693" type="line"/>
      <point x="184" y="574" type="line"/>
    </contour>
  </outline>
</glyph>
<glyph name="divide" format="2">
  <advance width="576"/>
  <unicode hex="00F7"/>
  <outline>
    <contour>
      <point x="526" y="302.0" type="line"/>
      <point x="540" y="378.0" type="line"/>
      <point x="84" y="378.0" type="line"/>
      <point x="70" y="302.0" type="line"/>
    </contour>
    <contour>
      <point x="226" y="205.0" type="line"/>
      <point x="208" y="99.0" type="line"/>
      <point x="317" y="99.0" type="line"/>
      <point x="335" y="205.0" type="line"/>
    </contour>
    <contour>
      <point x="292" y="581.0" type="line"/>
      <point x="274" y="475.0" type="line"/>
      <point x="383" y="475.0" type="line"/>
      <point x="401" y="581.0" type="line"/>
    </contour>
  </outline>
</glyph>
<glyph name="Aogonek" format="2">
  <advance width="670"/>
  <unicode hex="0104"/>
  <outline>
    <contour>
      <point x="169" y="289" type="line"/>
      <point x="155" y="210" type="line"/>
      <point x="497" y="210" type="line"/>
      <point x="511" y="289" type="line"/>
    </contour>
    <contour>
      <point x="515" y="-15" type="line"/>
      <point x="603" y="0" type="line"/>
      <point x="461" y="700" type="line"/>
      <point x="369" y="700" type="line"/>
      <point x="-19" y="0" type="line"/>
      <point x="79" y="0" type="line"/>
      <point x="427" y="632" type="line"/>
      <point x="386" y="632" type="line"/>
    </contour>
    <contour>
      <point x="513" y="-197" type="curve"/>
      <point x="530" y="-197"/>
      <point x="558" y="-195"/>
      <point x="582" y="-189" type="curve"/>
      <point x="593" y="-129" type="line"/>
      <point x="575" y="-131"/>
      <point x="559" y="-134"/>
      <point x="541" y="-134" type="curve" smooth="yes"/>
      <point x="514" y="-134"/>
      <point x="496" y="-127"/>
      <point x="496" y="-106" type="curve" smooth="yes"/>
      <point x="496" y="-70"/>
      <point x="547" y="-31"/>
      <point x="603" y="0" type="curve"/>
      <point x="519" y="0" type="line"/>
      <point x="470" y="-26"/>
      <point x="418" y="-63"/>
      <point x="418" y="-123" type="curve" smooth="yes"/>
      <point x="418" y="-165"/>
      <point x="443" y="-197"/>
    </contour>
  </outline>
</glyph>
<glyph name="dcroat" format="2">
  <advance width="584"/>
  <unicode hex="0111"/>
  <outline>
    <contour>
      <point x="325" y="554" type="line"/>
      <point x="633" y="554" type="line"/>
      <point x="644" y="619" type="line"/>
      <point x="336" y="619" type="line"/>
    </contour>
    <component base="d"/>
  </outline>
</glyph>
<glyph name="eogonek" format="2">
  <advance width="548"/>
  <unicode hex="0119"/>
  <outline>
    <contour>
      <point x="234" y="-197" type="curve"/>
      <point x="251" y="-197"/>
      <point x="279" y="-195"/>
      <point x="303" y="-189" type="curve"/>
      <point x="314" y="-129" type="line"/>
      <point x="296" y="-131"/>
      <point x="280" y="-134"/>
      <point x="262" y="-134" type="curve" smooth="yes"/>
      <point x="235" y="-134"/>
      <point x="217" y="-127"/>
      <point x="217" y="-106" type="curve" smooth="yes"/>
      <point x="217" y="-70"/>
      <point x="269" y="-24"/>
      <point x="332" y="-1" type="curve" smooth="yes"/>
      <point x="401" y="24"/>
      <point x="451" y="67"/>
      <point x="484" y="134" type="curve"/>
      <point x="411" y="161" type="line"/>
      <point x="382" y="99"/>
      <point x="331" y="58"/>
      <point x="258" y="58" type="curve" smooth="yes"/>
      <point x="170.3404255319149" y="58.0"/>
      <point x="122" y="111"/>
      <point x="130" y="226" type="curve"/>
      <point x="500" y="226" type="line"/>
      <point x="502" y="241" type="line" smooth="yes"/>
      <point x="505" y="263"/>
      <point x="507" y="278"/>
      <point x="507" y="298" type="curve" smooth="yes"/>
      <point x="507" y="419"/>
      <point x="440" y="502"/>
      <point x="318" y="502" type="curve" smooth="yes"/>
      <point x="146" y="502"/>
      <point x="41" y="356"/>
      <point x="41" y="200" type="curve" smooth="yes"/>
      <point x="41" y="77"/>
      <point x="118" y="-12"/>
      <point x="245" y="-12" type="curve" smooth="yes"/>
      <point x="248" y="-12"/>
      <point x="250" y="-12"/>
      <point x="251" y="-12" type="curve"/>
      <point x="247" y="4" type="line"/>
      <point x="176" y="-33"/>
      <point x="139" y="-71"/>
      <point x="139" y="-123" type="curve" smooth="yes"/>
      <point x="139" y="-165"/>
      <point x="164" y="-197"/>
    </contour>
    <contour>
      <point x="308" y="432" type="curve" smooth="yes"/>
      <point x="384.35632183908046" y="432.0"/>
      <point x="426" y="387"/>
      <point x="425" y="292" type="curve"/>
      <point x="143" y="292" type="line"/>
      <point x="167" y="368"/>
      <point x="221" y="432"/>
    </contour>
  </outline>
</glyph>
<glyph name="hbar" format="2">
  <advance width="556"/>
  <unicode hex="0127"/>
  <outline>
    <contour>
      <point x="367" y="554" type="line"/>
      <point x="378" y="619" type="line"/>
      <point x="70" y="619" type="line"/>
      <point x="59" y="554" type="line"/>
    </contour>
    <component base="h"/>
  </outline>
</glyph>
<glyph name="imacron" format="2">
  <advance width="250"/>
  <unicode hex="012B"/>
  <outline>
    <contour>
      <point x="74" y="604.0" type="line"/>
      <point x="302" y="604.0" type="line"/>
      <point x="314" y="670.0" type="line"/>
      <point x="86" y="670.0" type="line"/>
    </contour>
    <component base="dotlessi"/>
  </outline>
</glyph>
<glyph name="ibreve" format="2">
  <advance width="250"/>
  <unicode hex="012D"/>
  <outline>
    <contour>
      <point x="75" y="700.0" type="line"/>
      <point x="64" y="626.0"/>
      <point x="100" y="565.0"/>
      <point x="185" y="565.0" type="curve" smooth="yes"/>
      <point x="268.0" y="565.0"/>
      <point x="322" y="626.0"/>
      <point x="335" y="700.0" type="curve"/>
      <point x="269" y="700.0" type="line"/>
      <point x="262" y="658.0"/>
      <point x="237" y="627.0"/>
      <point x="194" y="627.0" type="curve" smooth="yes"/>
      <point x="151" y="627.0"/>
      <point x="135" y="658.0"/>
      <point x="141" y="700.0" type="curve"/>
    </contour>
    <component base="dotlessi"/>
  </outline>
</glyph>
<glyph name="iogonek" format="2">
  <advance width="250"/>
  <unicode hex="012F"/>
  <outline>
    <contour>
      <point x="36" y="-6" type="line"/>
      <point x="125" y="0" type="line"/>
      <point x="212" y="490" type="line"/>
      <point x="124" y="490" type="line"/>
    </contour>
    <contour>
      <point x="139" y="597" type="line"/>
      <point x="235" y="597" type="line"/>
      <point x="253" y="700" type="line"/>
      <point x="157" y="700" type="line"/>
    </contour>
    <contour>
      <point x="35" y="-197" type="curve"/>
      <point x="52" y="-197"/>
      <point x="80" y="-195"/>
      <point x="104" y="-189" type="curve"/>
      <point x="115" y="-129" type="line"/>
      <point x="97" y="-131"/>
      <point x="81" y="-134"/>
      <point x="63" y="-134" type="curve" smooth="yes"/>
      <point x="36" y="-134"/>
      <point x="18" y="-127"/>
      <point x="18" y="-106" type="curve" smooth="yes"/>
      <point x="18" y="-70"/>
      <point x="69" y="-31"/>
      <point x="125" y="0" type="curve"/>
      <point x="41" y="0" type="line"/>
      <point x="-8" y="-26"/>
      <point x="-60" y="-63"/>
      <point x="-60" y="-123" type="curve" smooth="yes"/>
      <point x="-60" y="-165"/>
      <point x="-35" y="-197"/>
    </contour>
  </outline>
</glyph>
<glyph name="dotlessi" format="2">
  <advance width="250"/>
  <unicode hex="0131"/>
  <anchor x="169" y="0" name="ogonek"/>
  <outline>
    <contour>
      <point x="124" y="490" type="line"/>
      <point x="38" y="0" type="line"/>
      <point x="126" y="0" type="line"/>
      <point x="212" y="490" type="line"/>
    </contour>
  </outline>
</glyph>
<glyph name="jcircumflex" format="2">
  <advance width="250"/>
  <unicode hex="0135"/>
  <outline>
    <contour>
      <point x="161" y="700.0" type="line"/>
      <point x="41" y="570.0" type="line"/>
      <point x="114" y="570.0" type="line"/>
      <point x="224" y="671.0" type="line"/>
      <point x="176" y="671.0" type="line"/>
      <point x="250" y="570.0" type="line"/>
      <point x="323" y="570.0" type="line"/>
      <point x="249" y="700.0" type="line"/>
    </contour>
    <component base="dotlessj"/>
  </outline>
</glyph>
<glyph name="Ldot" format="2">
  <advance width="630"/>
  <unicode hex="013F"/>
  <outline>
    <contour>
      <point x="442" y="442" type="line"/>
      <point x="422" y="326" type="line"/>
      <point x="521" y="326" type="line"/>
      <point x="541" y="442" type="line"/>
    </contour>
    <component base="L"/>
  </outline>
</glyph>
<glyph name="ldot" format="2">
  <advance width="347"/>
  <unicode hex="0140"/>
  <outline>
    <contour>
      <point x="282" y="433" type="line"/>
      <point x="261" y="317" type="line"/>
      <point x="360" y="317" type="line"/>
      <point x="381" y="433" type="line"/>
    </contour>
    <component base="l"/>
  </outline>
</glyph>
<glyph name="Lslash" format="2">
  <advance width="630"/>
  <unicode hex="0141"/>
  <outline>
    <contour>
      <point x="24" y="285" type="line"/>
      <point x="447" y="466" type="line"/>
      <point x="433" y="382" type="line"/>
      <point x="9" y="201" type="line"/>
    </contour>
    <component base="L"/>
  </outline>
</glyph>
<glyph name="Eng" format="2">
  <advance width="774"/>
  <unicode hex="014A"/>
  <outline>
    <contour>
      <point x="620" y="40" type="line"/>
      <point x="299" y="700" type="line"/>
      <point x="177" y="700" type="line"/>
      <point x="53" y="0" type="line"/>
      <point x="142" y="0" type="line"/>
      <point x="258" y="657" type="line"/>
      <point x="225" y="657" type="line"/>
      <point x="546" y="0" type="line"/>
      <point x="633" y="0" type="line"/>
      <point x="757" y="700" type="line"/>
      <point x="668" y="700" type="line"/>
      <point x="551" y="40" type="line"/>
    </contour>
    <contour>
      <point x="442" y="-192" type="curve" smooth="yes"/>
      <point x="555" y="-192"/>
      <point x="609" y="-138"/>
      <point x="625" y="-46" type="curve" smooth="yes"/>
      <point x="633" y="0" type="line"/>
      <point x="550" y="36" type="line"/>
      <point x="538" y="-35" type="line" smooth="yes"/>
      <point x="530" y="-83"/>
      <point x="508" y="-111"/>
      <point x="442" y="-111" type="curve" smooth="yes"/>
      <point x="403" y="-111"/>
      <point x="375" y="-102"/>
      <point x="353" y="-92" type="curve"/>
      <point x="339" y="-173" type="line"/>
      <point x="363" y="-185"/>
      <point x="400" y="-192"/>
    </contour>
  </outline>
</glyph>
<glyph name="OE" format="2">
  <advance width="1211"/>
  <unicode hex="0152"/>
  <outline>
    <contour>
      <point x="357" y="-12" type="curve" smooth="yes"/>
      <point x="594" y="-12"/>
      <point x="735" y="213"/>
      <point x="735" y="417" type="curve" smooth="yes"/>
      <point x="735" y="589"/>
      <point x="629" y="712"/>
      <point x="453" y="712" type="curve" smooth="yes"/>
      <point x="217" y="712"/>
      <point x="62" y="511"/>
      <point x="62" y="289" type="curve" smooth="yes"/>
      <point x="62" y="109"/>
      <point x="180" y="-12"/>
    </contour>
    <contour>
      <point x="367" y="69" type="curve" smooth="yes"/>
      <point x="238" y="69"/>
      <point x="155" y="157"/>
      <point x="155" y="295" type="curve" smooth="yes"/>
      <point x="155" y="465"/>
      <point x="269" y="631"/>
      <point x="447" y="631" type="curve" smooth="yes"/>
      <point x="576" y="631"/>
      <point x="659" y="543"/>
      <point x="659" y="406" type="curve" smooth="yes"/>
      <point x="659" y="235"/>
      <point x="545" y="69"/>
    </contour>
    <contour>
      <point x="695" y="315" type="line"/>
      <point x="1023" y="315" type="line"/>
      <point x="1037" y="396" type="line"/>
      <point x="709" y="396" type="line"/>
    </contour>
    <contour>
      <point x="738" y="618" type="line"/>
      <point x="1214" y="618" type="line"/>
      <point x="1229" y="700" type="line"/>
      <point x="753" y="700" type="line"/>
    </contour>
    <contour>
      <point x="633" y="0" type="line"/>
      <point x="1123" y="0" type="line"/>
      <point x="1138" y="82" type="line"/>
      <point x="648" y="82" type="line"/>
    </contour>
    <contour>
      <point x="718" y="700" type="line"/>
      <point x="594" y="0" type="line"/>
      <point x="685" y="0" type="line"/>
      <point x="809" y="700" type="line"/>
    </contour>
  </outline>
</glyph>
<glyph name="Tbar" format="2">
  <advance width="675"/>
  <unicode hex="0166"/>
  <outline>
    <contour>
      <point x="151" y="325" type="line"/>
      <point x="552" y="325" type="line"/>
      <point x="565" y="403" type="line"/>
      <point x="164" y="403" type="line"/>
    </contour>
    <contour>
      <point x="367" y="671" type="line"/>
      <point x="248" y="0" type="line"/>
      <point x="339" y="0" type="line"/>
      <point x="458" y="671" type="line"/>
    </contour>
    <contour>
      <point x="104" y="620" type="line"/>
      <point x="703" y="620" type="line"/>
      <point x="717" y="700" type="line"/>
      <point x="118" y="700" type="line"/>
    </contour>
  </outline>
</glyph>
<glyph name="tbar" format="2">
  <advance width="363"/>
  <unicode hex="0167"/>
  <outline>
    <contour>
      <point x="27" y="252" type="line"/>
      <point x="314" y="252" type="line"/>
      <point x="326" y="320" type="line"/>
      <point x="39" y="320" type="line"/>
    </contour>
    <component base="t"/>
  </outline>
</glyph>
<glyph name="Uogonek" format="2">
  <advance width="736"/>
  <unicode hex="0172"/>
  <outline>
    <contour>
      <point x="323" y="-197" type="curve"/>
      <point x="340" y="-197"/>
      <point x="368" y="-195"/>
      <point x="392" y="-189" type="curve"/>
      <point x="403" y="-129" type="line"/>
      <point x="385" y="-131"/>
      <point x="369" y="-134"/>
      <point x="351" y="-134" type="curve" smooth="yes"/>
      <point x="324" y="-134"/>
      <point x="306" y="-127"/>
      <point x="306" y="-106" type="curve" smooth="yes"/>
      <point x="306" y="-71"/>
      <point x="352" y="-24"/>
      <point x="425" y="-3" type="curve" smooth="yes"/>
      <point x="544" y="31"/>
      <point x="620" y="113"/>
      <point x="644" y="248" type="curve" smooth="yes"/>
      <point x="724" y="700" type="line"/>
      <point x="634" y="700" type="line"/>
      <point x="556" y="257" type="line" smooth="yes"/>
      <point x="536" y="141"/>
      <point x="465" y="71"/>
      <point x="348" y="71" type="curve" smooth="yes"/>
      <point x="243" y="71"/>
      <point x="183" y="128"/>
      <point x="183" y="223" type="curve" smooth="yes"/>
      <point x="183" y="238"/>
      <point x="184" y="253"/>
      <point x="187" y="270" type="curve" smooth="yes"/>
      <point x="263" y="700" type="line"/>
      <point x="172" y="700" type="line"/>
      <point x="95" y="267" type="line" smooth="yes"/>
      <point x="92" y="247"/>
      <point x="90" y="229"/>
      <point x="90" y="211" type="curve" smooth="yes"/>
      <point x="90" y="86"/>
      <point x="171" y="0"/>
      <point x="310" y="-11" type="curve"/>
      <point x="267" y="-36"/>
      <point x="228" y="-71"/>
      <point x="228" y="-123" type="curve" smooth="yes"/>
      <point x="228" y="-165"/>
      <point x="253" y="-197"/>
    </contour>
  </outline>
</glyph>
<glyph name="Bhook" format="2">
  <advance width="836"/>
  <unicode hex="0181"/>
  <outline>
    <contour>
      <point x="307" y="700" type="line"/>
      <point x="183" y="0" type="line"/>
      <point x="274" y="0" type="line"/>
      <point x="398" y="700" type="line"/>
    </contour>
    <contour>
      <point x="519" y="0" type="line" smooth="yes"/>
      <point x="669" y="0"/>
      <point x="772" y="103"/>
      <point x="772" y="226" type="curve" smooth="yes"/>
      <point x="772" y="304"/>
      <point x="727" y="347"/>
      <point x="678" y="370" type="curve"/>
      <point x="675" y="353" type="line"/>
      <point x="753" y="375"/>
      <point x="813" y="449"/>
      <point x="813" y="541" type="curve" smooth="yes"/>
      <point x="813" y="636"/>
      <point x="749" y="700"/>
      <point x="643" y="700" type="curve" smooth="yes"/>
      <point x="341" y="700" type="line"/>
      <point x="326" y="619" type="line"/>
      <point x="621" y="619" type="line" smooth="yes"/>
      <point x="685" y="619"/>
      <point x="723" y="585"/>
      <point x="723" y="527" type="curve" smooth="yes"/>
      <point x="723" y="463"/>
      <point x="678" y="400"/>
      <point x="587" y="400" type="curve" smooth="yes"/>
      <point x="287" y="400" type="line"/>
      <point x="273" y="319" type="line"/>
      <point x="570" y="319" type="line" smooth="yes"/>
      <point x="635" y="319"/>
      <point x="680" y="285"/>
      <point x="680" y="218" type="curve" smooth="yes"/>
      <point x="680" y="142"/>
      <point x="622" y="81"/>
      <point x="528" y="81" type="curve" smooth="yes"/>
      <point x="232" y="81" type="line"/>
      <point x="217" y="0" type="line"/>
    </contour>
    <contour>
      <point x="378" y="700" type="line"/>
      <point x="287" y="700" type="line" smooth="yes"/>
      <point x="107" y="700"/>
      <point x="38" y="581"/>
      <point x="38" y="478" type="curve" smooth="yes"/>
      <point x="38" y="445"/>
      <point x="46" y="416"/>
      <point x="56" y="391" type="curve"/>
      <point x="144" y="396" type="line"/>
      <point x="132" y="422"/>
      <point x="126" y="449"/>
      <point x="126" y="477" type="curve" smooth="yes"/>
      <point x="126" y="550"/>
      <point x="163" y="618"/>
      <point x="276" y="618" type="curve" smooth="yes"/>
      <point x="364" y="618" type="line"/>
    </contour>
  </outline>
</glyph>
<glyph name="Oopen" format="2">
  <advance width="748"/>
  <unicode hex="0186"/>
  <outline>
    <contour>
      <point x="82" y="499" type="curve"/>
      <point x="169" y="466" type="line"/>
      <point x="213" y="563"/>
      <point x="305" y="631"/>
      <point x="414" y="631" type="curve" smooth="yes"/>
      <point x="539" y="631"/>
      <point x="620" y="544"/>
      <point x="620" y="408" type="curve" smooth="yes"/>
      <point x="620" y="237"/>
      <point x="506" y="69"/>
      <point x="331" y="69" type="curve" smooth="yes"/>
      <point x="213" y="69"/>
      <point x="138" y="145"/>
      <point x="129" y="249" type="curve"/>
      <point x="37" y="228" type="line"/>
      <point x="51" y="90"/>
      <point x="162" y="-12"/>
      <point x="324" y="-12" type="curve" smooth="yes"/>
      <point x="561" y="-12"/>
      <point x="714" y="189"/>
      <point x="714" y="415" type="curve" smooth="yes"/>
      <point x="714" y="595"/>
      <point x="597" y="712"/>
      <point x="422" y="712" type="curve" smooth="yes"/>
      <point x="275" y="712"/>
      <point x="144" y="626"/>
    </contour>
  </outline>
</glyph>
<glyph name="Dhook" format="2">
  <advance width="896"/>
  <unicode hex="018A"/>
  <outline>
    <contour>
      <point x="378" y="700" type="line"/>
      <point x="287" y="700" type="line" smooth="yes"/>
      <point x="107" y="700"/>
      <point x="38" y="581"/>
      <point x="38" y="478" type="curve" smooth="yes"/>
      <point x="38" y="445"/>
      <point x="46" y="416"/>
      <point x="56" y="391" type="curve"/>
      <point x="144" y="396" type="line"/>
      <point x="132" y="422"/>
      <point x="126" y="449"/>
      <point x="126" y="477" type="curve" smooth="yes"/>
      <point x="126" y="550"/>
      <point x="163" y="618"/>
      <point x="276" y="618" type="curve" smooth="yes"/>
      <point x="364" y="618" type="line"/>
    </contour>
    <contour>
      <point x="183" y="0" type="line"/>
      <point x="274" y="0" type="line"/>
      <point x="398" y="700" type="line"/>
      <point x="307" y="700" type="line"/>
    </contour>
    <contour>
      <point x="231" y="82" type="line"/>
      <point x="216" y="0" type="line"/>
      <point x="471" y="0" type="line" smooth="yes"/>
      <point x="714" y="0"/>
      <point x="862" y="186"/>
      <point x="862" y="411" type="curve" smooth="yes"/>
      <point x="862" y="586"/>
      <point x="768" y="700"/>
      <point x="592" y="700" type="curve" smooth="yes"/>
      <point x="339" y="700" type="line"/>
      <point x="324" y="618" type="line"/>
      <point x="572" y="618" type="line" smooth="yes"/>
      <point x="702" y="618"/>
      <point x="770" y="544"/>
      <point x="770" y="406" type="curve" smooth="yes"/>
      <point x="770" y="232"/>
      <point x="666" y="82"/>
      <point x="481" y="82" type="curve" smooth="yes"/>
    </contour>
  </outline>
</glyph>
<glyph name="Ereversed" format="2">
  <advance width="670"/>
  <unicode hex="018E"/>
  <outline>
    <contour>
      <point x="653" y="700" type="line"/>
      <point x="562" y="700" type="line"/>
      <point x="438" y="0" type="line"/>
      <point x="529" y="0" type="line"/>
    </contour>
    <contour>
      <point x="603" y="618" type="line"/>
      <point x="618" y="700" type="line"/>
      <point x="142" y="700" type="line"/>
      <point x="127" y="618" type="line"/>
    </contour>
    <contour>
      <point x="540" y="315" type="line"/>
      <point x="554" y="396" type="line"/>
      <point x="226" y="396" type="line"/>
      <point x="212" y="315" type="line"/>
    </contour>
    <contour>
      <point x="490" y="0" type="line"/>
      <point x="505" y="82" type="line"/>
      <point x="15" y="82" type="line"/>
      <point x="0" y="0" type="line"/>
    </contour>
  </outline>
</glyph>
<glyph name="Schwa" format="2">
  <advance width="776"/>
  <unicode hex="018F"/>
  <outline>
    <contour>
      <point x="742" y="595"/>
      <point x="630" y="712"/>
      <point x="448" y="712" type="curve" smooth="yes"/>
      <point x="295" y="712"/>
      <point x="170" y="630"/>
      <point x="105" y="513" type="curve"/>
      <point x="183" y="475" type="line"/>
      <point x="230" y="561"/>
      <point x="320" y="632"/>
      <point x="440" y="632" type="curve" smooth="yes"/>
      <point x="573" y="632"/>
      <point x="648" y="547"/>
      <point x="648" y="407" type="curve" smooth="yes"/>
      <point x="648" y="240"/>
      <point x="541" y="69"/>
      <point x="361" y="69" type="curve" smooth="yes"/>
      <point x="230" y="69"/>
      <point x="149" y="155"/>
      <point x="149" y="288" type="curve" smooth="yes"/>
      <point x="149" y="311"/>
      <point x="154" y="332"/>
      <point x="158" y="356" type="curve"/>
      <point x="134" y="291" type="line"/>
      <point x="666" y="291" type="line"/>
      <point x="679" y="366" type="line"/>
      <point x="64" y="366" type="line"/>
      <point x="63" y="359" type="line" smooth="yes"/>
      <point x="60" y="335"/>
      <point x="58" y="315"/>
      <point x="58" y="290" type="curve" smooth="yes"/>
      <point x="58" y="118"/>
      <point x="166" y="-12"/>
      <point x="351" y="-12" type="curve" smooth="yes"/>
      <point x="591" y="-12"/>
      <point x="742" y="193"/>
      <point x="742" y="411" type="curve" smooth="yes"/>
    </contour>
  </outline>
</glyph>
<glyph name="Eopen" format="2">
  <advance width="647"/>
  <unicode hex="0190"/>
  <outline>
    <contour>
      <point x="603" y="189" type="curve"/>
      <point x="512" y="185" type="line"/>
      <point x="502" y="118"/>
      <point x="426" y="68"/>
      <point x="318" y="68" type="curve" smooth="yes"/>
      <point x="219" y="68"/>
      <point x="142" y="110"/>
      <point x="142" y="186" type="curve" smooth="yes"/>
      <point x="142" y="259"/>
      <point x="213" y="323"/>
      <point x="326" y="323" type="curve" smooth="yes"/>
      <point x="412" y="323" type="line"/>
      <point x="426" y="403" type="line"/>
      <point x="346" y="403" type="line" smooth="yes"/>
      <point x="265" y="403"/>
      <point x="216" y="437"/>
      <point x="216" y="497" type="curve" smooth="yes"/>
      <point x="216" y="568"/>
      <point x="288" y="633"/>
      <point x="400" y="633" type="curve" smooth="yes"/>
      <point x="499" y="633"/>
      <point x="564" y="580"/>
      <point x="564" y="520" type="curve" smooth="yes"/>
      <point x="564" y="515"/>
      <point x="564" y="513"/>
      <point x="563" y="506" type="curve"/>
      <point x="649" y="501" type="line"/>
      <point x="651" y="510"/>
      <point x="652" y="520"/>
      <point x="652" y="531" type="curve" smooth="yes"/>
      <point x="652" y="640"/>
      <point x="543" y="712"/>
      <point x="408" y="712" type="curve" smooth="yes"/>
      <point x="235" y="712"/>
      <point x="121" y="615"/>
      <point x="121" y="496" type="curve" smooth="yes"/>
      <point x="121" y="422"/>
      <point x="172" y="383"/>
      <point x="220" y="367" type="curve"/>
      <point x="221" y="373" type="line"/>
      <point x="123" y="357"/>
      <point x="48" y="276"/>
      <point x="48" y="174" type="curve" smooth="yes"/>
      <point x="48" y="57"/>
      <point x="156" y="-12"/>
      <point x="309" y="-12" type="curve" smooth="yes"/>
      <point x="462" y="-12"/>
      <point x="585" y="55"/>
    </contour>
  </outline>
</glyph>
<glyph name="fhook" format="2">
  <advance width="485"/>
  <unicode hex="0192"/>
  <outline>
    <contour>
      <point x="140" y="382" type="line"/>
      <point x="437" y="382" type="line"/>
      <point x="449" y="452" type="line"/>
      <point x="152" y="452" type="line"/>
    </contour>
    <contour>
      <point x="201" y="104" type="curve" smooth="yes"/>
      <point x="408" y="584" type="line" smooth="yes"/>
      <point x="425" y="623"/>
      <point x="450" y="640"/>
      <point x="487" y="640" type="curve" smooth="yes"/>
      <point x="496" y="640"/>
      <point x="510" y="639"/>
      <point x="521" y="637" type="curve"/>
      <point x="533" y="707" type="line"/>
      <point x="517" y="711"/>
      <point x="498" y="712"/>
      <point x="481" y="712" type="curve" smooth="yes"/>
      <point x="392" y="712"/>
      <point x="347" y="660"/>
      <point x="319" y="595" type="curve" smooth="yes"/>
      <point x="112" y="116" type="line" smooth="yes"/>
      <point x="95" y="77"/>
      <point x="71" y="60"/>
      <point x="34" y="60" type="curve" smooth="yes"/>
      <point x="26" y="60"/>
      <point x="12" y="61"/>
      <point x="0" y="63" type="curve"/>
      <point x="-12" y="-7" type="line"/>
      <point x="4" y="-11"/>
      <point x="24" y="-12"/>
      <point x="42" y="-12" type="curve" smooth="yes"/>
      <point x="129" y="-12"/>
      <point x="173" y="39"/>
    </contour>
  </outline>
</glyph>
<glyph name="khook" format="2">
  <advance width="534"/>
  <unicode hex="0199"/>
  <outline>
    <contour>
      <point x="117" y="236" type="line"/>
      <point x="108" y="144" type="line"/>
      <point x="250" y="258" type="line"/>
      <point x="282" y="275" type="line"/>
      <point x="548" y="490" type="line"/>
      <point x="433" y="490" type="line"/>
    </contour>
    <contour>
      <point x="216" y="266" type="line"/>
      <point x="380" y="0" type="line"/>
      <point x="476" y="0" type="line"/>
      <point x="281" y="316" type="line"/>
    </contour>
    <contour>
      <point x="226" y="576" type="line" smooth="yes"/>
      <point x="233" y="615"/>
      <point x="259" y="629"/>
      <point x="285" y="629" type="curve" smooth="yes"/>
      <point x="304.0" y="629.0"/>
      <point x="325" y="622"/>
      <point x="338" y="614" type="curve"/>
      <point x="354" y="687" type="line"/>
      <point x="338" y="697"/>
      <point x="311" y="706.0"/>
      <point x="279" y="706" type="curve" smooth="yes"/>
      <point x="207.0" y="706.0"/>
      <point x="152" y="656"/>
      <point x="140" y="586" type="curve" smooth="yes"/>
      <point x="36" y="0" type="line"/>
      <point x="124" y="0" type="line"/>
    </contour>
  </outline>
</glyph>
<glyph name="Nhookleft" format="2">
  <advance width="774"/>
  <unicode hex="019D"/>
  <outline>
    <contour>
      <point x="609" y="40" type="line"/>
      <point x="299" y="700" type="line"/>
      <point x="177" y="700" type="line"/>
      <point x="53" y="0" type="line"/>
      <point x="142" y="0" type="line"/>
      <point x="258" y="657" type="line"/>
      <point x="225" y="657" type="line"/>
      <point x="535" y="0" type="line"/>
      <point x="633" y="0" type="line"/>
      <point x="757" y="700" type="line"/>
      <point x="668" y="700" type="line"/>
      <point x="551" y="40" type="line"/>
    </contour>
    <contour>
      <point x="-33" y="-192" type="curve" smooth="yes"/>
      <point x="49" y="-192"/>
      <point x="117" y="-150"/>
      <point x="132" y="-61" type="curve" smooth="yes"/>
      <point x="142" y="0" type="line"/>
      <point x="53" y="0" type="line"/>
      <point x="44" y="-51" type="line" smooth="yes"/>
      <point x="36" y="-96"/>
      <point x="3" y="-112"/>
      <point x="-37" y="-112" type="curve" smooth="yes"/>
      <point x="-51" y="-112"/>
      <point x="-68" y="-110"/>
      <point x="-86" y="-103" type="curve"/>
      <point x="-100" y="-182" type="line"/>
      <point x="-79" y="-189"/>
      <point x="-54" y="-192"/>
    </contour>
  </outline>
</glyph>
<glyph name="Yhook" format="2">
  <advance width="666"/>
  <unicode hex="01B3"/>
  <outline>
    <contour>
      <point x="629" y="596" type="line" smooth="yes"/>
      <point x="651" y="620"/>
      <point x="668" y="627"/>
      <point x="687" y="627" type="curve" smooth="yes"/>
      <point x="706" y="627"/>
      <point x="718" y="620"/>
      <point x="731" y="612" type="curve"/>
      <point x="749" y="693" type="line"/>
      <point x="736" y="703"/>
      <point x="718" y="712"/>
      <point x="691" y="712" type="curve" smooth="yes"/>
      <point x="645" y="712"/>
      <point x="608" y="691"/>
      <point x="572" y="651" type="curve" smooth="yes"/>
      <point x="321" y="372" type="line"/>
      <point x="372" y="372" type="line"/>
      <point x="194" y="700" type="line"/>
      <point x="96" y="700" type="line"/>
      <point x="296" y="324" type="line"/>
      <point x="239" y="0" type="line"/>
      <point x="330" y="0" type="line"/>
      <point x="387" y="324" type="line"/>
    </contour>
  </outline>
</glyph>
<glyph name="yhook" format="2">
  <advance width="544"/>
  <unicode hex="01B4"/>
  <outline>
    <contour>
      <point x="65" y="490" type="line"/>
      <point x="200" y="-60" type="line"/>
      <point x="263" y="47" type="line"/>
      <point x="155" y="490" type="line"/>
    </contour>
    <contour>
      <point x="492" y="377" type="line" smooth="yes"/>
      <point x="512" y="411"/>
      <point x="524" y="424"/>
      <point x="545" y="424" type="curve" smooth="yes"/>
      <point x="560" y="424"/>
      <point x="574" y="417"/>
      <point x="584" y="411" type="curve"/>
      <point x="600" y="485" type="line"/>
      <point x="587" y="494"/>
      <point x="567" y="502"/>
      <point x="539" y="502" type="curve" smooth="yes"/>
      <point x="482" y="502"/>
      <point x="448" y="467"/>
      <point x="410" y="402" type="curve" smooth="yes"/>
      <point x="211" y="57" type="line"/>
      <point x="192" y="28" type="line"/>
      <point x="62" y="-180" type="line"/>
      <point x="160" y="-180" type="line"/>
    </contour>
  </outline>
</glyph>
<glyph name="oogonek" format="2">
  <advance width="566"/>
  <unicode hex="01EB"/>
  <outline>
    <contour>
      <point x="223" y="-197" type="curve"/>
      <point x="240" y="-197"/>
      <point x="268" y="-195"/>
      <point x="292" y="-189" type="curve"/>
      <point x="303" y="-129" type="line"/>
      <point x="285" y="-131"/>
      <point x="269" y="-134"/>
      <point x="251" y="-134" type="curve" smooth="yes"/>
      <point x="224" y="-134"/>
      <point x="206" y="-127"/>
      <point x="206" y="-106" type="curve" smooth="yes"/>
      <point x="206" y="-71"/>
      <point x="253" y="-24"/>
      <point x="313" y="-5" type="curve" smooth="yes"/>
      <point x="441" y="35"/>
      <point x="525" y="148"/>
      <point x="525" y="291" type="curve" smooth="yes"/>
      <point x="525" y="422"/>
      <point x="438" y="502"/>
      <point x="318" y="502" type="curve" smooth="yes"/>
      <point x="154" y="502"/>
      <point x="41" y="363"/>
      <point x="41" y="200" type="curve" smooth="yes"/>
      <point x="41" y="82"/>
      <point x="111" y="5"/>
      <point x="212" y="-9" type="curve"/>
      <point x="169" y="-35"/>
      <point x="128" y="-70"/>
      <point x="128" y="-123" type="curve" smooth="yes"/>
      <point x="128" y="-165"/>
      <point x="153" y="-197"/>
    </contour>
    <contour>
      <point x="436" y="288" type="curve" smooth="yes"/>
      <point x="436" y="180"/>
      <point x="375" y="58"/>
      <point x="256" y="58" type="curve" smooth="yes"/>
      <point x="177" y="58"/>
      <point x="130" y="111"/>
      <point x="130" y="203" type="curve" smooth="yes"/>
      <point x="130" y="309"/>
      <point x="191" y="432"/>
      <point x="310" y="432" type="curve" smooth="yes"/>
      <point x="390" y="432"/>
      <point x="436" y="379"/>
    </contour>
  </outline>
</glyph>
<glyph name="dotlessj" format="2">
  <advance width="250"/>
  <unicode hex="0237"/>
  <outline>
    <contour>
      <point x="113" y="-73" type="curve" smooth="yes"/>
      <point x="212" y="490" type="line"/>
      <point x="124" y="490" type="line"/>
      <point x="26" y="-68" type="line" smooth="yes"/>
      <point x="20" y="-101"/>
      <point x="3" y="-113"/>
      <point x="-30" y="-113" type="curve" smooth="yes"/>
      <point x="-43" y="-113"/>
      <point x="-55" y="-111"/>
      <point x="-67" y="-107" type="curve"/>
      <point x="-79" y="-178" type="line"/>
      <point x="-66" y="-184"/>
      <point x="-44" y="-189"/>
      <point x="-18" y="-189" type="curve" smooth="yes"/>
      <point x="40" y="-189"/>
      <point x="97" y="-165"/>
    </contour>
  </outline>
</glyph>
<glyph name="oopen" format="2">
  <advance width="537"/>
  <unicode hex="0254"/>
  <outline>
    <contour>
      <point x="57" y="356" type="curve"/>
      <point x="139" y="331" type="line"/>
      <point x="165" y="397"/>
      <point x="223" y="432"/>
      <point x="287" y="432" type="curve" smooth="yes"/>
      <point x="366" y="432.0"/>
      <point x="406.0" y="381"/>
      <point x="406" y="293" type="curve" smooth="yes"/>
      <point x="406.0" y="183.0"/>
      <point x="354" y="58"/>
      <point x="233" y="58" type="curve" smooth="yes"/>
      <point x="165" y="58"/>
      <point x="112" y="98"/>
      <point x="109" y="170" type="curve"/>
      <point x="21" y="153" type="line"/>
      <point x="28" y="50"/>
      <point x="113" y="-12"/>
      <point x="226" y="-12" type="curve" smooth="yes"/>
      <point x="408.0" y="-12.0"/>
      <point x="496.0" y="140"/>
      <point x="496" y="295" type="curve" smooth="yes"/>
      <point x="496.0" y="426.0"/>
      <point x="419" y="502"/>
      <point x="291" y="502" type="curve" smooth="yes"/>
      <point x="188" y="502"/>
      <point x="98" y="447"/>
    </contour>
  </outline>
</glyph>
<glyph name="schwa" format="2">
  <advance width="555"/>
  <unicode hex="0259"/>
  <outline>
    <contour>
      <point x="514" y="423"/>
      <point x="433" y="502"/>
      <point x="309" y="502" type="curve" smooth="yes"/>
      <point x="205" y="502"/>
      <point x="113" y="447"/>
      <point x="70" y="357" type="curve"/>
      <point x="145" y="330" type="line"/>
      <point x="175" y="392"/>
      <point x="236" y="432"/>
      <point x="304" y="432" type="curve" smooth="yes"/>
      <point x="380" y="432"/>
      <point x="426" y="383"/>
      <point x="426" y="294" type="curve" smooth="yes"/>
      <point x="426" y="184"/>
      <point x="369" y="58"/>
      <point x="252" y="58" type="curve" smooth="yes"/>
      <point x="178" y="58"/>
      <point x="126" y="108"/>
      <point x="126" y="198" type="curve" smooth="yes"/>
      <point x="126" y="213"/>
      <point x="128" y="230"/>
      <point x="131" y="248" type="curve"/>
      <point x="98" y="198" type="line"/>
      <point x="451" y="198" type="line"/>
      <point x="462" y="264" type="line"/>
      <point x="47" y="264" type="line"/>
      <point x="45" y="250" type="line" smooth="yes"/>
      <point x="42" y="229"/>
      <point x="41" y="217"/>
      <point x="41" y="199" type="curve" smooth="yes"/>
      <point x="41" y="75"/>
      <point x="118" y="-12"/>
      <point x="246" y="-12" type="curve" smooth="yes"/>
      <point x="422" y="-12"/>
      <point x="514" y="144"/>
      <point x="514" y="292" type="curve" smooth="yes"/>
    </contour>
  </outline>
</glyph>
<glyph name="istroke" format="2">
  <advance width="250"/>
  <unicode hex="0268"/>
  <outline>
    <contour>
      <point x="247" y="264.0" type="line"/>
      <point x="259" y="332.0" type="line"/>
      <point x="21" y="332.0" type="line"/>
      <point x="9" y="264.0" type="line"/>
    </contour>
    <component base="i"/>
  </outline>
</glyph>
<glyph name="nretroflex" format="2">
  <advance width="556"/>
  <unicode hex="0273"/>
  <outline>
    <contour>
      <point x="123" y="490" type="line"/>
      <point x="37" y="0" type="line"/>
      <point x="125" y="0" type="line"/>
      <point x="180" y="315" type="line" smooth="yes"/>
      <point x="193" y="388"/>
      <point x="248" y="431"/>
      <point x="314" y="431" type="curve" smooth="yes"/>
      <point x="376" y="431"/>
      <point x="404" y="392"/>
      <point x="404" y="342" type="curve" smooth="yes"/>
      <point x="404" y="333"/>
      <point x="403" y="323"/>
      <point x="401" y="313" type="curve" smooth="yes"/>
      <point x="332" y="-81" type="line" smooth="yes"/>
      <point x="330" y="-91"/>
      <point x="329" y="-99"/>
      <point x="329" y="-108" type="curve" smooth="yes"/>
      <point x="329" y="-174"/>
      <point x="383" y="-190"/>
      <point x="433" y="-190" type="curve" smooth="yes"/>
      <point x="455" y="-190"/>
      <point x="465" y="-188"/>
      <point x="478" y="-185" type="curve"/>
      <point x="490" y="-113" type="line"/>
      <point x="480" y="-115"/>
      <point x="474" y="-115"/>
      <point x="464" y="-115" type="curve" smooth="yes"/>
      <point x="437" y="-115"/>
      <point x="419" y="-107"/>
      <point x="419" y="-87" type="curve" smooth="yes"/>
      <point x="419" y="-86"/>
      <point x="419" y="-84"/>
      <point x="420" y="-79" type="curve" smooth="yes"/>
      <point x="490" y="322" type="line" smooth="yes"/>
      <point x="492" y="334"/>
      <point x="493" y="345"/>
      <point x="493" y="356" type="curve" smooth="yes"/>
      <point x="493" y="434"/>
      <point x="442" y="502"/>
      <point x="351" y="502" type="curve" smooth="yes"/>
      <point x="295" y="502"/>
      <point x="242" y="477"/>
      <point x="202" y="436" type="curve"/>
      <point x="211" y="490" type="line"/>
    </contour>
  </outline>
</glyph>
<glyph name="gravecmb" format="2">
  <advance width="600"/>
  <unicode hex="0300"/>
  <anchor x="331" y="570" name="center"/>
  <outline>
    <contour>
      <point x="382" y="700" type="line"/>
      <point x="422" y="570" type="line"/>
      <point x="360" y="570" type="line"/>
      <point x="303" y="700" type="line"/>
    </contour>
  </outline>
</glyph>
<glyph name="acutecmb" format="2">
  <advance width="600"/>
  <unicode hex="0301"/>
  <anchor x="269" y="570" name="center"/>
  <outline>
    <contour>
      <point x="379" y="700" type="line"/>
      <point x="464" y="700" type="line"/>
      <point x="363" y="570" type="line"/>
      <point x="295" y="570" type="line"/>
    </contour>
  </outline>
</glyph>
<glyph name="circumflexcmb" format="2">
  <advance width="600"/>
  <unicode hex="0302"/>
  <outline>
    <contour>
      <point x="338" y="700" type="line"/>
      <point x="214" y="570" type="line"/>
      <point x="288" y="570" type="line"/>
      <point x="407" y="671" type="line"/>
      <point x="355" y="671" type="line"/>
      <point x="440" y="570" type="line"/>
      <point x="506" y="570" type="line"/>
      <point x="426" y="700" type="line"/>
    </contour>
  </outline>
</glyph>
<glyph name="dotaccentcmb" format="2">
  <advance width="600"/>
  <unicode hex="0307"/>
  <outline>
    <contour>
      <point x="332" y="700" type="line"/>
      <point x="314" y="597" type="line"/>
      <point x="410" y="597" type="line"/>
      <point x="428" y="700" type="line"/>
    </contour>
  </outline>
</glyph>
<glyph name="hookabovecmb" format="2">
  <advance width="600"/>
  <unicode hex="0309"/>
  <anchor x="281" y="762" name="center"/>
  <outline>
    <contour>
      <point x="382" y="642"/>
      <point x="359" y="622"/>
      <point x="314" y="609" type="curve"/>
      <point x="341" y="568" type="line"/>
      <point x="389" y="578"/>
      <point x="441" y="616"/>
      <point x="441" y="674" type="curve" smooth="yes"/>
      <point x="441" y="718"/>
      <point x="413" y="751"/>
      <point x="363" y="751" type="curve" smooth="yes"/>
      <point x="324" y="751"/>
      <point x="287" y="730"/>
      <point x="264" y="698" type="curve"/>
      <point x="299" y="667" type="line"/>
      <point x="310" y="680"/>
      <point x="327" y="697"/>
      <point x="350" y="697" type="curve" smooth="yes"/>
      <point x="368" y="697"/>
      <point x="382" y="688"/>
      <point x="382" y="668" type="curve" smooth="yes"/>
    </contour>
  </outline>
</glyph>
<glyph name="ringabovecmb" format="2">
  <advance width="600"/>
  <unicode hex="030A"/>
  <outline>
    <contour>
      <point x="422" y="564"/>
      <point x="467" y="613"/>
      <point x="467" y="671" type="curve" smooth="yes"/>
      <point x="467" y="717"/>
      <point x="434" y="752"/>
      <point x="382" y="752" type="curve" smooth="yes"/>
      <point x="320" y="752"/>
      <point x="275" y="703"/>
      <point x="275" y="645" type="curve" smooth="yes"/>
      <point x="275" y="599"/>
      <point x="308" y="564"/>
      <point x="360" y="564" type="curve" smooth="yes"/>
    </contour>
    <contour>
      <point x="417" y="638"/>
      <point x="397" y="611"/>
      <point x="365" y="611" type="curve" smooth="yes"/>
      <point x="340" y="611"/>
      <point x="325" y="627"/>
      <point x="325" y="651" type="curve" smooth="yes"/>
      <point x="325" y="678"/>
      <point x="345" y="705"/>
      <point x="377" y="705" type="curve" smooth="yes"/>
      <point x="402" y="705"/>
      <point x="417" y="689"/>
      <point x="417" y="665" type="curve" smooth="yes"/>
    </contour>
  </outline>
</glyph>
<glyph name="hungarumlautcmb" format="2">
  <advance width="600"/>
  <unicode hex="030B"/>
  <guideline x="266" y="570" angle="90" name="center" identifier="qqE52RWXT3"/>
  <outline>
    <contour>
      <point x="298" y="700" type="line"/>
      <point x="382" y="700" type="line"/>
      <point x="292" y="570" type="line"/>
      <point x="220" y="570" type="line"/>
    </contour>
    <contour>
      <point x="434" y="700" type="line"/>
      <point x="518" y="700" type="line"/>
      <point x="428" y="570" type="line"/>
      <point x="356" y="570" type="line"/>
    </contour>
  </outline>
</glyph>
<glyph name="caroncmb" format="2">
  <advance width="600"/>
  <unicode hex="030C"/>
  <anchor x="300" y="569" name="_top"/>
  <outline>
    <contour>
      <point x="404" y="570" type="line"/>
      <point x="528" y="700" type="line"/>
      <point x="455" y="700" type="line"/>
      <point x="336" y="599" type="line"/>
      <point x="388" y="599" type="line"/>
      <point x="303" y="700" type="line"/>
      <point x="236" y="700" type="line"/>
      <point x="316" y="570" type="line"/>
    </contour>
  </outline>
</glyph>
<glyph name="commaturnedabovecmb" format="2">
  <advance width="600"/>
  <unicode hex="0312"/>
  <anchor x="300" y="597" name="_center"/>
  <outline>
    <contour>
      <point x="401" y="597" type="line"/>
      <point x="419" y="700" type="line"/>
      <point x="373" y="700" type="line"/>
      <point x="374" y="706" type="line" smooth="yes"/>
      <point x="379" y="737"/>
      <point x="400" y="756"/>
      <point x="441" y="756" type="curve"/>
      <point x="449" y="801" type="line"/>
      <point x="358" y="801"/>
      <point x="330" y="743"/>
      <point x="324" y="706" type="curve" smooth="yes"/>
      <point x="305" y="597" type="line"/>
    </contour>
  </outline>
</glyph>
<glyph name="horncmb" format="2">
  <advance width="600"/>
  <unicode hex="031B"/>
  <anchor x="204" y="490" name="_horn"/>
  <outline>
    <contour>
      <point x="360" y="576" type="line"/>
      <point x="361" y="570"/>
      <point x="361" y="564"/>
      <point x="361" y="558" type="curve" smooth="yes"/>
      <point x="361.0" y="508"/>
      <point x="348.0" y="490.0"/>
      <point x="307" y="490" type="curve" smooth="yes"/>
      <point x="243" y="490" type="line"/>
      <point x="233" y="434" type="line"/>
      <point x="307" y="434" type="line" smooth="yes"/>
      <point x="404.0" y="434.0"/>
      <point x="426.0" y="488"/>
      <point x="426" y="558" type="curve" smooth="yes"/>
      <point x="426" y="564"/>
      <point x="426" y="570"/>
      <point x="425" y="576" type="curve"/>
    </contour>
  </outline>
</glyph>
<glyph name="dotbelowcmb" format="2">
  <advance width="600"/>
  <unicode hex="0323"/>
  <anchor x="300" y="-77" name="_stem"/>
  <outline>
    <contour>
      <point x="196.0" y="-77.0" type="line"/>
      <point x="178.0" y="-180.0" type="line"/>
      <point x="274.0" y="-180.0" type="line"/>
      <point x="292.0" y="-77.0" type="line"/>
    </contour>
  </outline>
</glyph>
<glyph name="commaaccentbelowcmb" format="2">
  <advance width="600"/>
  <unicode hex="0326"/>
  <anchor x="300" y="-77" name="_center"/>
  <anchor x="300" y="-97" name="_stem"/>
  <outline>
    <contour>
      <point x="191" y="-77.0" type="line"/>
      <point x="173" y="-180.0" type="line"/>
      <point x="219" y="-180.0" type="line"/>
      <point x="218" y="-186.0" type="line" smooth="yes"/>
      <point x="213" y="-217"/>
      <point x="192" y="-236.0"/>
      <point x="151" y="-236.0" type="curve"/>
      <point x="143" y="-281.0" type="line"/>
      <point x="234" y="-281.0"/>
      <point x="262" y="-223"/>
      <point x="268" y="-186.0" type="curve" smooth="yes"/>
      <point x="287" y="-77.0" type="line"/>
    </contour>
  </outline>
</glyph>
<glyph name="ogonekcmb" format="2">
  <advance width="600"/>
  <unicode hex="0328"/>
  <anchor x="369" y="0" name="_ogonek"/>
  <outline>
    <contour>
      <point x="235.0" y="-197.0" type="curve"/>
      <point x="252.0" y="-197.0"/>
      <point x="280.0" y="-195.0"/>
      <point x="304.0" y="-189.0" type="curve"/>
      <point x="315.0" y="-129.0" type="line"/>
      <point x="297.0" y="-131.0"/>
      <point x="281.0" y="-134.0"/>
      <point x="263.0" y="-134.0" type="curve" smooth="yes"/>
      <point x="236.0" y="-134.0"/>
      <point x="218.0" y="-127.0"/>
      <point x="218.0" y="-106.0" type="curve" smooth="yes"/>
      <point x="218.0" y="-70.0"/>
      <point x="269.0" y="-31.0"/>
      <point x="325.0" y="0.0" type="curve"/>
      <point x="241.0" y="0.0" type="line"/>
      <point x="192.0" y="-26.0"/>
      <point x="140.0" y="-63.0"/>
      <point x="140.0" y="-123.0" type="curve" smooth="yes"/>
      <point x="140.0" y="-165.0"/>
      <point x="165.0" y="-197.0"/>
    </contour>
  </outline>
</glyph>
<glyph name="overlaystrokeshortcmb" format="2">
  <advance width="600"/>
  <unicode hex="0335"/>
  <outline>
    <contour>
      <point x="187" y="319" type="line"/>
      <point x="438" y="319" type="line"/>
      <point x="452" y="397" type="line"/>
      <point x="201" y="397" type="line"/>
    </contour>
  </outline>
</glyph>
<glyph name="rlinebelow" format="2">
  <advance width="375"/>
  <unicode hex="1E5F"/>
  <outline>
    <contour>
      <point x="-49" y="-86.0" type="line"/>
      <point x="179" y="-86.0" type="line"/>
      <point x="167" y="-153.0" type="line"/>
      <point x="-61" y="-153.0" type="line"/>
    </contour>
    <component base="r"/>
  </outline>
</glyph>
<glyph name="Germandbls" format="2">
  <advance width="747"/>
  <unicode hex="1E9E"/>
  <outline>
    <contour>
      <point x="177" y="700" type="line"/>
      <point x="53" y="0" type="line"/>
      <point x="144" y="0" type="line"/>
      <point x="268" y="700" type="line"/>
    </contour>
    <contour>
      <point x="716" y="618" type="line"/>
      <point x="731" y="700" type="line"/>
      <point x="212" y="700" type="line"/>
      <point x="197" y="618" type="line"/>
      <point x="672" y="618" type="line"/>
      <point x="636" y="649" type="line"/>
      <point x="341" y="418" type="line"/>
      <point x="330" y="353" type="line"/>
      <point x="452" y="353" type="line" smooth="yes"/>
      <point x="561" y="352"/>
      <point x="607" y="306"/>
      <point x="607" y="232" type="curve" smooth="yes"/>
      <point x="607" y="144"/>
      <point x="544" y="68"/>
      <point x="407" y="68" type="curve"/>
      <point x="367" y="68"/>
      <point x="318" y="74"/>
      <point x="270" y="92" type="curve"/>
      <point x="256" y="12" type="line"/>
      <point x="307" y="-7"/>
      <point x="360" y="-12"/>
      <point x="399" y="-12" type="curve"/>
      <point x="585" y="-12"/>
      <point x="700" y="102"/>
      <point x="700" y="240" type="curve" smooth="yes"/>
      <point x="700" y="352"/>
      <point x="620" y="430"/>
      <point x="478" y="430" type="curve" smooth="yes"/>
      <point x="400" y="430" type="line"/>
      <point x="439" y="403" type="line"/>
    </contour>
  </outline>
</glyph>
<glyph name="endash" format="2">
  <advance width="684"/>
  <unicode hex="2013"/>
  <outline>
    <contour>
      <point x="63" y="260" type="line"/>
      <point x="609" y="260" type="line"/>
      <point x="621" y="332" type="line"/>
      <point x="75" y="332" type="line"/>
    </contour>
  </outline>
</glyph>
<glyph name="emdash" format="2">
  <advance width="966"/>
  <unicode hex="2014"/>
  <outline>
    <contour>
      <point x="64" y="260" type="line"/>
      <point x="892" y="260" type="line"/>
      <point x="904" y="332" type="line"/>
      <point x="76" y="332" type="line"/>
    </contour>
  </outline>
</glyph>
<glyph name="bullet" format="2">
  <advance width="480"/>
  <unicode hex="2022"/>
  <outline>
    <contour>
      <point x="234" y="134" type="curve" smooth="yes"/>
      <point x="346.0" y="134.0"/>
      <point x="420.0" y="230"/>
      <point x="420" y="321" type="curve" smooth="yes"/>
      <point x="420" y="410"/>
      <point x="349" y="484"/>
      <point x="254" y="484" type="curve" smooth="yes"/>
      <point x="142.0" y="484.0"/>
      <point x="68.0" y="388"/>
      <point x="68" y="297" type="curve" smooth="yes"/>
      <point x="68" y="208"/>
      <point x="139" y="134"/>
    </contour>
  </outline>
</glyph>
<glyph name="perthousand" format="2">
  <advance width="1083"/>
  <unicode hex="2030"/>
  <outline>
    <contour>
      <point x="127" y="0" type="line"/>
      <point x="753" y="700" type="line"/>
      <point x="659" y="700" type="line"/>
      <point x="33" y="0" type="line"/>
    </contour>
    <contour>
      <point x="135" y="705"/>
      <point x="72" y="594"/>
      <point x="72" y="488" type="curve" smooth="yes"/>
      <point x="72" y="401"/>
      <point x="122" y="347"/>
      <point x="196" y="347" type="curve" smooth="yes"/>
      <point x="307" y="347"/>
      <point x="370" y="458"/>
      <point x="370" y="564" type="curve" smooth="yes"/>
      <point x="370" y="651"/>
      <point x="320" y="705"/>
      <point x="246" y="705" type="curve" smooth="yes"/>
    </contour>
    <contour>
      <point x="146" y="554"/>
      <point x="178" y="639"/>
      <point x="239" y="639" type="curve" smooth="yes"/>
      <point x="276" y="639"/>
      <point x="296" y="609"/>
      <point x="296" y="560" type="curve" smooth="yes"/>
      <point x="296" y="498"/>
      <point x="264" y="413"/>
      <point x="203" y="413" type="curve" smooth="yes"/>
      <point x="166" y="413"/>
      <point x="146" y="443"/>
      <point x="146" y="492" type="curve" smooth="yes"/>
    </contour>
    <contour>
      <point x="479" y="353"/>
      <point x="416" y="242"/>
      <point x="416" y="136" type="curve" smooth="yes"/>
      <point x="416" y="49"/>
      <point x="466" y="-5"/>
      <point x="540" y="-5" type="curve" smooth="yes"/>
      <point x="651" y="-5"/>
      <point x="714" y="106"/>
      <point x="714" y="212" type="curve" smooth="yes"/>
      <point x="714" y="299"/>
      <point x="664" y="353"/>
      <point x="590" y="353" type="curve" smooth="yes"/>
    </contour>
    <contour>
      <point x="490" y="202"/>
      <point x="522" y="287"/>
      <point x="583" y="287" type="curve" smooth="yes"/>
      <point x="620" y="287"/>
      <point x="640" y="257"/>
      <point x="640" y="208" type="curve" smooth="yes"/>
      <point x="640" y="146"/>
      <point x="608" y="61"/>
      <point x="547" y="61" type="curve" smooth="yes"/>
      <point x="510" y="61"/>
      <point x="490" y="91"/>
      <point x="490" y="140" type="curve" smooth="yes"/>
    </contour>
    <contour>
      <point x="807" y="353"/>
      <point x="744" y="242"/>
      <point x="744" y="136" type="curve" smooth="yes"/>
      <point x="744" y="49"/>
      <point x="794" y="-5"/>
      <point x="868" y="-5" type="curve" smooth="yes"/>
      <point x="979" y="-5"/>
      <point x="1042" y="106"/>
      <point x="1042" y="212" type="curve" smooth="yes"/>
      <point x="1042" y="299"/>
      <point x="992" y="353"/>
      <point x="918" y="353" type="curve" smooth="yes"/>
    </contour>
    <contour>
      <point x="818" y="202"/>
      <point x="850" y="287"/>
      <point x="911" y="287" type="curve" smooth="yes"/>
      <point x="948" y="287"/>
      <point x="968" y="257"/>
      <point x="968" y="208" type="curve" smooth="yes"/>
      <point x="968" y="146"/>
      <point x="936" y="61"/>
      <point x="875" y="61" type="curve" smooth="yes"/>
      <point x="838" y="61"/>
      <point x="818" y="91"/>
      <point x="818" y="140" type="curve" smooth="yes"/>
    </contour>
  </outline>
</glyph>
<glyph name="interrobang" format="2">
  <advance width="489"/>
  <unicode hex="203D"/>
  <outline>
    <contour>
      <point x="367" y="698" type="line"/>
      <point x="268" y="702" type="line"/>
      <point x="197" y="227" type="line"/>
      <point x="260" y="227" type="line"/>
    </contour>
    <contour>
      <point x="206" y="227" type="line"/>
      <point x="276" y="227" type="line"/>
      <point x="278" y="236" type="line" smooth="yes"/>
      <point x="288" y="280"/>
      <point x="313" y="311"/>
      <point x="365" y="346" type="curve" smooth="yes"/>
      <point x="427" y="388"/>
      <point x="506" y="443"/>
      <point x="506" y="551" type="curve" smooth="yes"/>
      <point x="506" y="652"/>
      <point x="426" y="712"/>
      <point x="311" y="712" type="curve" smooth="yes"/>
      <point x="196" y="712"/>
      <point x="110" y="650"/>
      <point x="72" y="546" type="curve"/>
      <point x="154" y="521" type="line"/>
      <point x="179" y="589"/>
      <point x="224" y="635"/>
      <point x="302" y="635" type="curve" smooth="yes"/>
      <point x="368" y="635"/>
      <point x="415" y="603"/>
      <point x="415" y="542" type="curve" smooth="yes"/>
      <point x="415" y="493"/>
      <point x="385" y="453"/>
      <point x="325" y="405" type="curve" smooth="yes"/>
      <point x="257" y="351"/>
      <point x="221" y="321"/>
      <point x="209" y="246" type="curve" smooth="yes"/>
    </contour>
    <component base="period" xOffset="108"/>
  </outline>
</glyph>
<glyph name="fraction" format="2">
  <advance width="126"/>
  <unicode hex="2044"/>
  <outline>
    <contour>
      <point x="-304" y="0.0" type="line"/>
      <point x="-215" y="0.0" type="line"/>
      <point x="430" y="700.0" type="line"/>
      <point x="341" y="700.0" type="line"/>
    </contour>
  </outline>
</glyph>
<glyph name="colonmonetary" format="2">
  <advance width="577"/>
  <unicode hex="20A1"/>
  <outline>
    <contour>
      <point x="566" y="477" type="line"/>
      <point x="564" y="615"/>
      <point x="507" y="712"/>
      <point x="380" y="712" type="curve" smooth="yes"/>
      <point x="184" y="712"/>
      <point x="63" y="479"/>
      <point x="63" y="250" type="curve" smooth="yes"/>
      <point x="63" y="88"/>
      <point x="139" y="-12"/>
      <point x="270" y="-12" type="curve" smooth="yes"/>
      <point x="388" y="-12"/>
      <point x="475" y="77"/>
      <point x="522" y="208" type="curve"/>
      <point x="446" y="227" type="line"/>
      <point x="416" y="139"/>
      <point x="361" y="60"/>
      <point x="279" y="60" type="curve" smooth="yes"/>
      <point x="192" y="60"/>
      <point x="150" y="130"/>
      <point x="150" y="246" type="curve" smooth="yes"/>
      <point x="150" y="432"/>
      <point x="229" y="638"/>
      <point x="370" y="638" type="curve" smooth="yes"/>
      <point x="461" y="638"/>
      <point x="489" y="559"/>
      <point x="489" y="466" type="curve"/>
    </contour>
    <contour>
      <point x="102" y="-112" type="line"/>
      <point x="165" y="-112" type="line"/>
      <point x="408" y="797" type="line"/>
      <point x="345" y="797" type="line"/>
    </contour>
    <contour>
      <point x="205" y="-112" type="line"/>
      <point x="268" y="-112" type="line"/>
      <point x="511" y="797" type="line"/>
      <point x="448" y="797" type="line"/>
    </contour>
  </outline>
</glyph>
<glyph name="naira" format="2">
  <advance width="687"/>
  <unicode hex="20A6"/>
  <outline>
    <contour>
      <point x="74" y="400.0" type="line"/>
      <point x="188" y="400.0" type="line"/>
      <point x="200" y="470.0" type="line"/>
      <point x="86" y="470.0" type="line"/>
    </contour>
    <contour>
      <point x="529" y="255.0" type="line"/>
      <point x="645" y="255.0" type="line"/>
      <point x="658" y="325.0" type="line"/>
      <point x="542" y="325.0" type="line"/>
    </contour>
    <contour>
      <point x="355" y="400.0" type="line"/>
      <point x="671" y="400.0" type="line"/>
      <point x="683" y="470.0" type="line"/>
      <point x="330" y="470.0" type="line"/>
    </contour>
    <contour>
      <point x="48" y="255.0" type="line"/>
      <point x="405" y="255.0" type="line"/>
      <point x="379" y="325.0" type="line"/>
      <point x="61" y="325.0" type="line"/>
    </contour>
    <contour>
      <point x="500" y="40.0" type="line"/>
      <point x="307" y="700.0" type="line"/>
      <point x="200" y="700.0" type="line"/>
      <point x="76" y="0.0" type="line"/>
      <point x="156" y="0.0" type="line"/>
      <point x="272" y="657.0" type="line"/>
      <point x="244" y="657.0" type="line"/>
      <point x="436" y="0.0" type="line"/>
      <point x="523" y="0.0" type="line"/>
      <point x="647" y="700.0" type="line"/>
      <point x="567" y="700.0" type="line"/>
      <point x="450" y="40.0" type="line"/>
    </contour>
  </outline>
</glyph>
<glyph name="newsheqel" format="2">
  <advance width="737"/>
  <unicode hex="20AA"/>
  <outline>
    <contour>
      <point x="381" y="700.0" type="line" smooth="yes"/>
      <point x="510" y="700.0"/>
      <point x="556" y="635.0"/>
      <point x="536" y="518.0" type="curve" smooth="yes"/>
      <point x="477" y="184.0" type="line"/>
      <point x="395" y="184.0" type="line"/>
      <point x="453" y="516.0" type="line" smooth="yes"/>
      <point x="465" y="583.0"/>
      <point x="445" y="622.0"/>
      <point x="365" y="622.0" type="curve" smooth="yes"/>
      <point x="240" y="622.0" type="line"/>
      <point x="130" y="0.0" type="line"/>
      <point x="46" y="0.0" type="line"/>
      <point x="170" y="700.0" type="line"/>
    </contour>
    <contour>
      <point x="392" y="0.0" type="line" smooth="yes"/>
      <point x="263" y="0.0"/>
      <point x="217" y="66.0"/>
      <point x="238" y="183.0" type="curve" smooth="yes"/>
      <point x="296" y="516.0" type="line"/>
      <point x="378" y="516.0" type="line"/>
      <point x="320" y="184.0" type="line" smooth="yes"/>
      <point x="308" y="117.0"/>
      <point x="328" y="78.0"/>
      <point x="408" y="78.0" type="curve" smooth="yes"/>
      <point x="533" y="78.0" type="line"/>
      <point x="643" y="700.0" type="line"/>
      <point x="727" y="700.0" type="line"/>
      <point x="603" y="0.0" type="line"/>
    </contour>
  </outline>
</glyph>
<glyph name="dong" format="2">
  <advance width="578"/>
  <unicode hex="20AB"/>
  <outline>
    <contour>
      <point x="218" y="110" type="curve" smooth="yes"/>
      <point x="299" y="110"/>
      <point x="364" y="163"/>
      <point x="398" y="235" type="curve"/>
      <point x="369" y="239" type="line"/>
      <point x="349" y="122" type="line"/>
      <point x="435" y="122" type="line"/>
      <point x="537" y="700" type="line"/>
      <point x="451" y="700" type="line"/>
      <point x="399" y="408" type="line"/>
      <point x="428" y="404" type="line"/>
      <point x="420" y="483"/>
      <point x="365" y="539"/>
      <point x="281" y="539" type="curve" smooth="yes"/>
      <point x="158" y="539"/>
      <point x="67" y="424"/>
      <point x="67" y="282" type="curve" smooth="yes"/>
      <point x="67" y="169"/>
      <point x="133" y="110"/>
    </contour>
    <contour>
      <point x="251" y="180" type="curve" smooth="yes"/>
      <point x="194" y="180"/>
      <point x="156" y="222"/>
      <point x="156" y="296" type="curve" smooth="yes"/>
      <point x="156" y="389"/>
      <point x="216" y="469"/>
      <point x="298" y="469" type="curve" smooth="yes"/>
      <point x="355" y="469"/>
      <point x="394" y="429"/>
      <point x="394" y="355" type="curve" smooth="yes"/>
      <point x="394" y="262"/>
      <point x="333" y="180"/>
    </contour>
    <contour>
      <point x="270" y="586" type="line"/>
      <point x="577" y="586" type="line"/>
      <point x="588" y="649" type="line"/>
      <point x="281" y="649" type="line"/>
    </contour>
    <contour>
      <point x="37" y="0" type="line"/>
      <point x="443" y="0" type="line"/>
      <point x="454" y="63" type="line"/>
      <point x="48" y="63" type="line"/>
    </contour>
  </outline>
</glyph>
<glyph name="indianrupee" format="2">
  <advance width="589"/>
  <unicode hex="20B9"/>
  <outline>
    <contour>
      <point x="149" y="336" type="line"/>
      <point x="189" y="242"/>
      <point x="264" y="79"/>
      <point x="320" y="0" type="curve"/>
      <point x="412" y="0" type="line"/>
      <point x="412" y="7" type="line"/>
      <point x="357" y="82"/>
      <point x="279" y="243"/>
      <point x="238" y="336" type="curve"/>
    </contour>
    <contour>
      <point x="84" y="463" type="line"/>
      <point x="587" y="463" type="line"/>
      <point x="601" y="540" type="line"/>
      <point x="98" y="540" type="line"/>
    </contour>
    <contour>
      <point x="241" y="382" type="curve" smooth="yes"/>
      <point x="70" y="382" type="line"/>
      <point x="56" y="305" type="line"/>
      <point x="226" y="305" type="line" smooth="yes"/>
      <point x="380" y="305"/>
      <point x="482" y="403"/>
      <point x="482" y="524" type="curve" smooth="yes"/>
      <point x="482" y="571"/>
      <point x="468" y="610"/>
      <point x="428" y="638" type="curve"/>
      <point x="422" y="623" type="line"/>
      <point x="614" y="623" type="line"/>
      <point x="628" y="700" type="line"/>
      <point x="125" y="700" type="line"/>
      <point x="111" y="622" type="line"/>
      <point x="283" y="622" type="line" smooth="yes"/>
      <point x="351" y="622"/>
      <point x="394" y="595"/>
      <point x="394" y="525" type="curve" smooth="yes"/>
      <point x="394" y="445"/>
      <point x="341" y="382"/>
    </contour>
  </outline>
</glyph>
<glyph name="manat" format="2">
  <advance width="620"/>
  <unicode hex="20BC"/>
  <outline>
    <contour>
      <point x="359" y="748" type="line"/>
      <point x="265" y="216" type="line"/>
      <point x="345" y="216" type="line"/>
      <point x="439" y="748" type="line"/>
    </contour>
    <contour>
      <point x="580" y="413" type="line" smooth="yes"/>
      <point x="583" y="432"/>
      <point x="585" y="450"/>
      <point x="585" y="467" type="curve" smooth="yes"/>
      <point x="585.0" y="582"/>
      <point x="511" y="670"/>
      <point x="373" y="670" type="curve" smooth="yes"/>
      <point x="222" y="670"/>
      <point x="125" y="563"/>
      <point x="102" y="429" type="curve" smooth="yes"/>
      <point x="27" y="0" type="line"/>
      <point x="111" y="0" type="line"/>
      <point x="185" y="419" type="line" smooth="yes"/>
      <point x="203" y="515"/>
      <point x="262" y="587"/>
      <point x="365" y="587" type="curve" smooth="yes"/>
      <point x="456.0" y="587.0"/>
      <point x="499.0" y="533"/>
      <point x="499" y="454" type="curve" smooth="yes"/>
      <point x="499" y="439"/>
      <point x="498" y="425"/>
      <point x="495" y="409" type="curve" smooth="yes"/>
      <point x="423" y="0" type="line"/>
      <point x="507" y="0" type="line"/>
    </contour>
  </outline>
</glyph>
<glyph name="trademark" format="2">
  <advance width="852"/>
  <unicode hex="2122"/>
  <outline>
    <contour>
      <point x="219" y="677" type="line"/>
      <point x="287" y="677" type="line"/>
      <point x="229" y="347" type="line"/>
      <point x="161" y="347" type="line"/>
    </contour>
    <contour>
      <point x="96" y="642" type="line"/>
      <point x="106" y="700" type="line"/>
      <point x="409" y="700" type="line"/>
      <point x="399" y="642" type="line"/>
    </contour>
    <contour>
      <point x="509" y="657" type="line"/>
      <point x="577" y="347" type="line"/>
      <point x="609" y="347" type="line"/>
      <point x="784" y="656" type="line"/>
      <point x="769" y="656" type="line"/>
      <point x="715" y="347" type="line"/>
      <point x="781" y="347" type="line"/>
      <point x="843" y="700" type="line"/>
      <point x="745" y="700" type="line"/>
      <point x="578" y="407" type="line"/>
      <point x="624" y="407" type="line"/>
      <point x="562" y="700" type="line"/>
      <point x="469" y="700" type="line"/>
      <point x="407" y="347" type="line"/>
      <point x="471" y="347" type="line"/>
      <point x="525" y="657" type="line"/>
    </contour>
  </outline>
</glyph>
<glyph name="arrowleft" format="2">
  <advance width="782"/>
  <unicode hex="2190"/>
  <outline>
    <contour>
      <point x="742" y="393" type="line"/>
      <point x="112" y="393" type="line"/>
      <point x="112" y="307" type="line"/>
      <point x="742" y="307" type="line"/>
    </contour>
    <contour>
      <point x="30" y="350" type="line"/>
      <point x="330" y="49" type="line"/>
      <point x="390" y="109" type="line"/>
      <point x="149" y="350" type="line"/>
      <point x="390" y="591" type="line"/>
      <point x="330" y="651" type="line"/>
    </contour>
  </outline>
</glyph>
<glyph name="arrowup" format="2">
  <advance width="682"/>
  <unicode hex="2191"/>
  <outline>
    <contour>
      <point x="404" y="0" type="line"/>
      <point x="404" y="630" type="line"/>
      <point x="318" y="630" type="line"/>
      <point x="318" y="0" type="line"/>
    </contour>
    <contour>
      <point x="361" y="712" type="line"/>
      <point x="60" y="412" type="line"/>
      <point x="120" y="352" type="line"/>
      <point x="361" y="593" type="line"/>
      <point x="602" y="352" type="line"/>
      <point x="662" y="412" type="line"/>
    </contour>
  </outline>
</glyph>
<glyph name="arrowdown" format="2">
  <advance width="682"/>
  <unicode hex="2193"/>
  <outline>
    <contour>
      <point x="384" y="700" type="line"/>
      <point x="384" y="70" type="line"/>
      <point x="298" y="70" type="line"/>
      <point x="298" y="700" type="line"/>
    </contour>
    <contour>
      <point x="341" y="-12" type="line"/>
      <point x="40" y="288" type="line"/>
      <point x="100" y="348" type="line"/>
      <point x="341" y="107" type="line"/>
      <point x="582" y="348" type="line"/>
      <point x="642" y="288" type="line"/>
    </contour>
  </outline>
</glyph>
<glyph name="arrowNW" format="2">
  <advance width="665"/>
  <unicode hex="2196"/>
  <outline>
    <contour>
      <point x="615" y="129" type="line"/>
      <point x="169" y="574" type="line"/>
      <point x="108" y="513" type="line"/>
      <point x="554" y="68" type="line"/>
    </contour>
    <contour>
      <point x="81" y="602" type="line"/>
      <point x="81" y="177" type="line"/>
      <point x="166" y="177" type="line"/>
      <point x="166" y="517" type="line"/>
      <point x="506" y="517" type="line"/>
      <point x="506" y="602" type="line"/>
    </contour>
  </outline>
</glyph>
<glyph name="arrowNE" format="2">
  <advance width="665"/>
  <unicode hex="2197"/>
  <outline>
    <contour>
      <point x="121" y="73" type="line"/>
      <point x="566" y="519" type="line"/>
      <point x="505" y="580" type="line"/>
      <point x="60" y="134" type="line"/>
    </contour>
    <contour>
      <point x="594" y="607" type="line"/>
      <point x="169" y="607" type="line"/>
      <point x="169" y="522" type="line"/>
      <point x="509" y="522" type="line"/>
      <point x="509" y="182" type="line"/>
      <point x="594" y="182" type="line"/>
    </contour>
  </outline>
</glyph>
<glyph name="arrowSE" format="2">
  <advance width="665"/>
  <unicode hex="2198"/>
  <outline>
    <contour>
      <point x="70" y="562" type="line"/>
      <point x="515" y="117" type="line"/>
      <point x="576" y="178" type="line"/>
      <point x="131" y="623" type="line"/>
    </contour>
    <contour>
      <point x="604" y="89" type="line"/>
      <point x="604" y="514" type="line"/>
      <point x="519" y="514" type="line"/>
      <point x="519" y="174" type="line"/>
      <point x="179" y="174" type="line"/>
      <point x="179" y="89" type="line"/>
    </contour>
  </outline>
</glyph>
<glyph name="arrowSW" format="2">
  <advance width="665"/>
  <unicode hex="2199"/>
  <outline>
    <contour>
      <point x="562" y="618" type="line"/>
      <point x="116" y="172" type="line"/>
      <point x="177" y="111" type="line"/>
      <point x="623" y="557" type="line"/>
    </contour>
    <contour>
      <point x="89" y="84" type="line"/>
      <point x="514" y="84" type="line"/>
      <point x="514" y="168" type="line"/>
      <point x="173" y="168" type="line"/>
      <point x="173" y="509" type="line"/>
      <point x="89" y="509" type="line"/>
    </contour>
  </outline>
</glyph>
<glyph name="minus" format="2">
  <advance width="576"/>
  <unicode hex="2212"/>
  <outline>
    <contour>
      <point x="526" y="302.0" type="line"/>
      <point x="540" y="378.0" type="line"/>
      <point x="84" y="378.0" type="line"/>
      <point x="70" y="302.0" type="line"/>
    </contour>
  </outline>
</glyph>
<glyph name="approxequal" format="2">
  <advance width="576"/>
  <unicode hex="2248"/>
  <outline>
    <contour>
      <point x="47" y="179.0" type="curve"/>
      <point x="118" y="179.0" type="line"/>
      <point x="127" y="211.0"/>
      <point x="144" y="228.0"/>
      <point x="175" y="228.0" type="curve" smooth="yes"/>
      <point x="223.0" y="228.0"/>
      <point x="320" y="182.0"/>
      <point x="389" y="182.0" type="curve" smooth="yes"/>
      <point x="450.0" y="182.0"/>
      <point x="503" y="218.0"/>
      <point x="525" y="305.0" type="curve"/>
      <point x="454" y="305.0" type="line"/>
      <point x="445" y="273.0"/>
      <point x="427" y="256.0"/>
      <point x="396" y="256.0" type="curve" smooth="yes"/>
      <point x="348.0" y="256.0"/>
      <point x="251" y="302.0"/>
      <point x="182" y="302.0" type="curve" smooth="yes"/>
      <point x="121.0" y="302.0"/>
      <point x="68" y="267.0"/>
    </contour>
    <contour>
      <point x="559" y="501.0" type="curve"/>
      <point x="488" y="501.0" type="line"/>
      <point x="479" y="469.0"/>
      <point x="462" y="452.0"/>
      <point x="431" y="452.0" type="curve" smooth="yes"/>
      <point x="383.0" y="452.0"/>
      <point x="286" y="498.0"/>
      <point x="217" y="498.0" type="curve" smooth="yes"/>
      <point x="156.0" y="498.0"/>
      <point x="103" y="463.0"/>
      <point x="81" y="375.0" type="curve"/>
      <point x="152" y="375.0" type="line"/>
      <point x="162" y="407.0"/>
      <point x="179" y="424.0"/>
      <point x="210" y="424.0" type="curve" smooth="yes"/>
      <point x="258.0" y="424.0"/>
      <point x="355" y="378.0"/>
      <point x="424" y="378.0" type="curve" smooth="yes"/>
      <point x="485.0" y="378.0"/>
      <point x="538" y="413.0"/>
    </contour>
  </outline>
</glyph>
<glyph name="lessequal" format="2">
  <advance width="576"/>
  <unicode hex="2264"/>
  <outline>
    <contour>
      <point x="472" y="0.0" type="line"/>
      <point x="486" y="76.0" type="line"/>
      <point x="30" y="76.0" type="line"/>
      <point x="16" y="0.0" type="line"/>
    </contour>
    <contour>
      <point x="92" y="428.0" type="line"/>
      <point x="77" y="342.0" type="line"/>
      <point x="499" y="151.0" type="line"/>
      <point x="513" y="230.0" type="line"/>
      <point x="148" y="394.0" type="line"/>
      <point x="143" y="365.0" type="line"/>
      <point x="566" y="529.0" type="line"/>
      <point x="581" y="619.0" type="line"/>
    </contour>
  </outline>
</glyph>
<glyph name="foursanscircled" format="2">
  <advance width="828"/>
  <unicode hex="2783"/>
  <outline>
    <contour>
      <point x="541" y="546" type="line"/>
      <point x="460" y="546" type="line"/>
      <point x="244" y="308" type="line"/>
      <point x="232" y="245" type="line"/>
      <point x="414" y="245" type="line"/>
      <point x="398" y="154" type="line"/>
      <point x="471" y="154" type="line"/>
      <point x="487" y="245" type="line"/>
      <point x="554" y="245" type="line"/>
      <point x="565" y="306" type="line"/>
      <point x="498" y="306" type="line"/>
    </contour>
    <contour>
      <point x="322" y="306" type="line"/>
      <point x="450" y="446" type="line"/>
      <point x="425" y="306" type="line"/>
    </contour>
    <component base="circlewhite"/>
  </outline>
</glyph>
<glyph name="fivesanscircled" format="2">
  <advance width="828"/>
  <unicode hex="2784"/>
  <outline>
    <contour>
      <point x="537" y="312" type="curve" smooth="yes"/>
      <point x="537" y="377"/>
      <point x="502" y="419"/>
      <point x="437" y="419" type="curve" smooth="yes"/>
      <point x="407" y="419"/>
      <point x="382" y="409"/>
      <point x="362" y="395" type="curve"/>
      <point x="385" y="484" type="line"/>
      <point x="557" y="484" type="line"/>
      <point x="568" y="546" type="line"/>
      <point x="335" y="546" type="line"/>
      <point x="277" y="324" type="line"/>
      <point x="344" y="319" type="line"/>
      <point x="360" y="346"/>
      <point x="383" y="363"/>
      <point x="411" y="363" type="curve" smooth="yes"/>
      <point x="444" y="363"/>
      <point x="462" y="341"/>
      <point x="462" y="304" type="curve" smooth="yes"/>
      <point x="462" y="260"/>
      <point x="438" y="207"/>
      <point x="385" y="207" type="curve" smooth="yes"/>
      <point x="347.6" y="207.0"/>
      <point x="327" y="235"/>
      <point x="333" y="269" type="curve"/>
      <point x="253" y="279" type="line"/>
      <point x="252" y="273"/>
      <point x="251" y="266"/>
      <point x="251" y="259" type="curve" smooth="yes"/>
      <point x="251" y="190"/>
      <point x="302" y="148"/>
      <point x="380" y="148" type="curve" smooth="yes"/>
      <point x="475" y="148"/>
      <point x="537" y="222"/>
    </contour>
    <component base="circlewhite"/>
  </outline>
</glyph>
<glyph name="eightsanscircled" format="2">
  <advance width="828"/>
  <unicode hex="2787"/>
  <outline>
    <contour>
      <point x="558" y="281" type="curve" smooth="yes"/>
      <point x="558" y="321"/>
      <point x="534" y="347"/>
      <point x="500" y="360" type="curve"/>
      <point x="542" y="373"/>
      <point x="578" y="405"/>
      <point x="578" y="456" type="curve" smooth="yes"/>
      <point x="578" y="512"/>
      <point x="532" y="552"/>
      <point x="454" y="552" type="curve" smooth="yes"/>
      <point x="357" y="552"/>
      <point x="308" y="489"/>
      <point x="308" y="435" type="curve" smooth="yes"/>
      <point x="308" y="400"/>
      <point x="328" y="377"/>
      <point x="355" y="366" type="curve"/>
      <point x="305" y="351"/>
      <point x="266" y="312"/>
      <point x="266" y="253" type="curve" smooth="yes"/>
      <point x="266" y="191"/>
      <point x="317" y="148"/>
      <point x="397" y="148" type="curve" smooth="yes"/>
      <point x="501" y="148"/>
      <point x="558" y="218"/>
    </contour>
    <contour>
      <point x="379" y="436" type="curve" smooth="yes"/>
      <point x="379" y="467"/>
      <point x="408" y="494"/>
      <point x="449" y="494" type="curve" smooth="yes"/>
      <point x="483" y="494"/>
      <point x="505" y="476"/>
      <point x="505" y="449" type="curve" smooth="yes"/>
      <point x="505" y="418"/>
      <point x="476" y="390"/>
      <point x="435" y="390" type="curve" smooth="yes"/>
      <point x="401" y="390"/>
      <point x="379" y="408"/>
    </contour>
    <contour>
      <point x="484" y="281" type="curve" smooth="yes"/>
      <point x="484" y="249"/>
      <point x="460" y="206"/>
      <point x="404" y="206" type="curve" smooth="yes"/>
      <point x="364" y="206"/>
      <point x="340" y="228"/>
      <point x="340" y="261" type="curve" smooth="yes"/>
      <point x="340" y="293"/>
      <point x="363" y="334"/>
      <point x="419" y="334" type="curve" smooth="yes"/>
      <point x="459" y="334"/>
      <point x="484" y="314"/>
    </contour>
    <component base="circlewhite"/>
  </outline>
</glyph>
<glyph name="ninesanscircled" format="2">
  <advance width="828"/>
  <unicode hex="2788"/>
  <outline>
    <contour>
      <point x="459" y="552" type="curve" smooth="yes"/>
      <point x="359" y="552"/>
      <point x="300" y="474"/>
      <point x="300" y="395" type="curve" smooth="yes"/>
      <point x="300" y="326"/>
      <point x="347" y="286"/>
      <point x="409" y="286" type="curve" smooth="yes"/>
      <point x="440" y="286"/>
      <point x="470" y="297"/>
      <point x="492" y="318" type="curve"/>
      <point x="478" y="253"/>
      <point x="451" y="206"/>
      <point x="402" y="206" type="curve" smooth="yes"/>
      <point x="372" y="206"/>
      <point x="354.0" y="223.0"/>
      <point x="354" y="258" type="curve"/>
      <point x="278" y="270" type="line"/>
      <point x="277" y="264"/>
      <point x="276" y="258"/>
      <point x="276" y="251" type="curve" smooth="yes"/>
      <point x="276" y="190"/>
      <point x="316" y="148"/>
      <point x="394" y="148" type="curve" smooth="yes"/>
      <point x="495" y="148"/>
      <point x="549" y="218"/>
      <point x="573" y="353" type="curve" smooth="yes"/>
      <point x="579" y="383"/>
      <point x="582" y="407"/>
      <point x="582" y="427" type="curve" smooth="yes"/>
      <point x="582" y="505"/>
      <point x="535" y="552"/>
    </contour>
    <contour>
      <point x="375" y="404" type="curve" smooth="yes"/>
      <point x="375" y="448"/>
      <point x="403" y="492"/>
      <point x="451" y="492" type="curve" smooth="yes"/>
      <point x="483" y="492"/>
      <point x="507" y="471"/>
      <point x="507" y="432" type="curve" smooth="yes"/>
      <point x="507" y="388"/>
      <point x="479" y="344"/>
      <point x="431" y="344" type="curve" smooth="yes"/>
      <point x="399" y="344"/>
      <point x="375" y="365"/>
    </contour>
    <component base="circlewhite"/>
  </outline>
</glyph>
<glyph name="twosansnegativecircled" format="2">
  <advance width="828"/>
  <unicode hex="278B"/>
  <outline>
    <contour>
      <point x="267" y="215" type="line"/>
      <point x="436" y="339"/>
      <point x="499" y="373"/>
      <point x="499" y="434" type="curve" smooth="yes"/>
      <point x="499" y="468"/>
      <point x="478" y="489"/>
      <point x="443" y="489" type="curve" smooth="yes"/>
      <point x="390" y="489"/>
      <point x="372" y="443"/>
      <point x="372" y="420" type="curve" smooth="yes"/>
      <point x="372" y="412"/>
      <point x="374" y="403"/>
      <point x="378" y="394" type="curve"/>
      <point x="310" y="387" type="line"/>
      <point x="304" y="398"/>
      <point x="302" y="409"/>
      <point x="302" y="421" type="curve" smooth="yes"/>
      <point x="302" y="474"/>
      <point x="345" y="552"/>
      <point x="451" y="552" type="curve" smooth="yes"/>
      <point x="541" y="552"/>
      <point x="574" y="499"/>
      <point x="574" y="444" type="curve" smooth="yes"/>
      <point x="574" y="359"/>
      <point x="501" y="308"/>
      <point x="367" y="218" type="curve"/>
      <point x="538" y="218" type="line"/>
      <point x="527" y="154" type="line"/>
      <point x="256" y="154" type="line"/>
    </contour>
    <component base="circleblack"/>
  </outline>
</glyph>
<glyph name="sevensansnegativecircled" format="2">
  <advance width="828"/>
  <unicode hex="2790"/>
  <outline>
    <contour>
      <point x="329" y="546" type="line"/>
      <point x="624" y="546" type="line"/>
      <point x="617" y="508" type="line"/>
      <point x="528" y="399"/>
      <point x="429" y="284"/>
      <point x="396" y="154" type="curve"/>
      <point x="318" y="154" type="line"/>
      <point x="344" y="270"/>
      <point x="434" y="381"/>
      <point x="524" y="484" type="curve"/>
      <point x="389" y="484" type="line"/>
      <point x="375" y="404" type="line"/>
      <point x="304" y="404" type="line"/>
    </contour>
    <component base="circleblack"/>
  </outline>
</glyph>
<glyph name="tensansnegativecircled" format="2">
  <advance width="828"/>
  <unicode hex="2793"/>
  <outline>
    <contour>
      <point x="215" y="154" type="line"/>
      <point x="261" y="410" type="line"/>
      <point x="181" y="410" type="line"/>
      <point x="190" y="464" type="line"/>
      <point x="260" y="464"/>
      <point x="283" y="485"/>
      <point x="294" y="546" type="curve"/>
      <point x="360" y="546" type="line"/>
      <point x="290" y="154" type="line"/>
    </contour>
    <contour>
      <point x="482" y="147" type="curve" smooth="yes"/>
      <point x="409" y="147"/>
      <point x="370.0" y="199.0"/>
      <point x="370" y="290" type="curve" smooth="yes"/>
      <point x="370" y="414"/>
      <point x="422.0" y="552.0"/>
      <point x="542" y="552" type="curve" smooth="yes"/>
      <point x="615" y="552"/>
      <point x="655.0" y="499.0"/>
      <point x="655" y="408" type="curve" smooth="yes"/>
      <point x="655" y="284"/>
      <point x="602.0" y="147.0"/>
    </contour>
    <contour>
      <point x="489" y="208" type="curve" smooth="yes"/>
      <point x="555" y="208"/>
      <point x="580.0" y="330.0"/>
      <point x="580" y="414" type="curve" smooth="yes"/>
      <point x="580" y="463"/>
      <point x="566" y="490"/>
      <point x="535" y="490" type="curve" smooth="yes"/>
      <point x="469" y="490"/>
      <point x="444.0" y="370.0"/>
      <point x="444" y="286" type="curve" smooth="yes"/>
      <point x="444" y="237"/>
      <point x="458" y="208"/>
    </contour>
    <component base="circleblack"/>
  </outline>
</glyph>
<glyph name="Euro.tab" format="2">
  <advance width="600"/>
  <outline>
    <contour>
      <point x="600" y="480" type="line"/>
      <point x="599" y="615"/>
      <point x="540" y="712"/>
      <point x="418" y="712" type="curve" smooth="yes"/>
      <point x="211" y="712"/>
      <point x="106" y="466"/>
      <point x="106" y="244" type="curve" smooth="yes"/>
      <point x="106" y="85"/>
      <point x="181" y="-12"/>
      <point x="307" y="-12" type="curve" smooth="yes"/>
      <point x="424" y="-12"/>
      <point x="509" y="76"/>
      <point x="555" y="210" type="curve"/>
      <point x="477" y="226" type="line"/>
      <point x="447" y="137"/>
      <point x="396" y="64"/>
      <point x="316" y="64" type="curve" smooth="yes"/>
      <point x="236" y="64"/>
      <point x="196" y="130"/>
      <point x="196" y="240" type="curve" smooth="yes"/>
      <point x="196" y="414"/>
      <point x="266" y="637"/>
      <point x="408" y="637" type="curve" smooth="yes"/>
      <point x="491.7613636363636" y="637.0"/>
      <point x="519" y="559"/>
      <point x="518" y="464" type="curve"/>
    </contour>
    <contour>
      <point x="64" y="397" type="line"/>
      <point x="386" y="386" type="line"/>
      <point x="413" y="455" type="line"/>
      <point x="76" y="467" type="line"/>
    </contour>
    <contour>
      <point x="39" y="257" type="line"/>
      <point x="331" y="247" type="line"/>
      <point x="358" y="316" type="line"/>
      <point x="51" y="327" type="line"/>
    </contour>
  </outline>
</glyph>
<glyph name=".notdef" format="2">
  <advance width="664"/>
  <outline>
    <contour>
      <point x="185" y="650" type="line"/>
      <point x="624" y="650" type="line"/>
      <point x="633" y="700" type="line"/>
      <point x="194" y="700" type="line"/>
    </contour>
    <contour>
      <point x="79" y="50" type="line"/>
      <point x="70" y="0" type="line"/>
      <point x="509" y="0" type="line"/>
      <point x="518" y="50" type="line"/>
    </contour>
    <contour>
      <point x="597" y="700" type="line"/>
      <point x="473" y="0" type="line"/>
      <point x="523" y="0" type="line"/>
      <point x="647" y="700" type="line"/>
    </contour>
    <contour>
      <point x="53" y="0" type="line"/>
      <point x="103" y="0" type="line"/>
      <point x="227" y="700" type="line"/>
      <point x="177" y="700" type="line"/>
    </contour>
    <contour>
      <point x="211" y="261" type="line"/>
      <point x="239" y="227" type="line"/>
      <point x="489" y="439" type="line"/>
      <point x="461" y="473" type="line"/>
    </contour>
    <contour>
      <point x="281" y="471" type="line"/>
      <point x="245" y="441" type="line"/>
      <point x="419" y="229" type="line"/>
      <point x="455" y="259" type="line"/>
    </contour>
  </outline>
</glyph>
<glyph name="acutecmb.uc" format="2">
  <advance width="600"/>
  <anchor x="270" y="771" name="center"/>
  <anchor x="270" y="761" name="_acute"/>
  <anchor x="270" y="771" name="center"/>
  <outline>
    <contour>
      <point x="417" y="892" type="line"/>
      <point x="511" y="892" type="line"/>
      <point x="391" y="771" type="line"/>
      <point x="320" y="771" type="line"/>
    </contour>
  </outline>
</glyph>
<glyph name="braceleft.uc" format="2">
  <advance width="370"/>
  <outline>
    <contour>
      <point x="204" y="181" type="line" smooth="yes"/>
      <point x="218" y="260"/>
      <point x="212" y="306"/>
      <point x="153" y="328" type="curve"/>
      <point x="220" y="346"/>
      <point x="239" y="390"/>
      <point x="254" y="469" type="curve" smooth="yes"/>
      <point x="275" y="581" type="line" smooth="yes"/>
      <point x="288" y="648"/>
      <point x="313" y="674"/>
      <point x="393" y="674" type="curve" smooth="yes"/>
      <point x="406" y="674" type="line"/>
      <point x="419" y="745" type="line"/>
      <point x="391" y="745" type="line" smooth="yes"/>
      <point x="266" y="745"/>
      <point x="203" y="686"/>
      <point x="183" y="571" type="curve" smooth="yes"/>
      <point x="162" y="451" type="line" smooth="yes"/>
      <point x="151" y="388"/>
      <point x="119" y="368"/>
      <point x="69" y="368" type="curve" smooth="yes"/>
      <point x="33" y="368" type="line"/>
      <point x="19" y="294" type="line"/>
      <point x="55" y="294" type="line" smooth="yes"/>
      <point x="105" y="294"/>
      <point x="129" y="270"/>
      <point x="118" y="207" type="curve" smooth="yes"/>
      <point x="101" y="105" type="line" smooth="yes"/>
      <point x="82" y="-11"/>
      <point x="102" y="-83"/>
      <point x="245" y="-83" type="curve" smooth="yes"/>
      <point x="273" y="-83" type="line"/>
      <point x="286" y="-12" type="line"/>
      <point x="273" y="-12" type="line" smooth="yes"/>
      <point x="190" y="-12"/>
      <point x="175" y="18"/>
      <point x="187" y="86" type="curve" smooth="yes"/>
    </contour>
  </outline>
</glyph>
<glyph name="bracketleft.uc" format="2">
  <advance width="352"/>
  <outline>
    <contour>
      <point x="39" y="-83" type="line"/>
      <point x="254" y="-83" type="line"/>
      <point x="266" y="-13" type="line"/>
      <point x="141" y="-13" type="line"/>
      <point x="263" y="675" type="line"/>
      <point x="388" y="675" type="line"/>
      <point x="400" y="745" type="line"/>
      <point x="185" y="745" type="line"/>
    </contour>
  </outline>
</glyph>
<glyph name="bullet.medium" format="2">
  <advance width="558"/>
  <outline>
    <contour>
      <point x="270" y="90" type="curve" smooth="yes"/>
      <point x="407.0" y="90.0"/>
      <point x="502.0" y="204.0"/>
      <point x="502" y="323" type="curve" smooth="yes"/>
      <point x="502" y="435"/>
      <point x="413" y="528"/>
      <point x="294" y="528" type="curve" smooth="yes"/>
      <point x="157.0" y="528.0"/>
      <point x="62.0" y="414.0"/>
      <point x="62" y="295" type="curve" smooth="yes"/>
      <point x="62" y="183"/>
      <point x="150" y="90"/>
    </contour>
  </outline>
</glyph>
<glyph name="caroncmb.uc" format="2">
  <advance width="600"/>
  <outline>
    <contour>
      <point x="435" y="771" type="line"/>
      <point x="568" y="892" type="line"/>
      <point x="492" y="892" type="line"/>
      <point x="369" y="808" type="line"/>
      <point x="421" y="808" type="line"/>
      <point x="328" y="892" type="line"/>
      <point x="256" y="892" type="line"/>
      <point x="345" y="771" type="line"/>
    </contour>
  </outline>
</glyph>
<glyph name="caroncmb.ucalt" format="2">
  <advance width="600"/>
  <anchor x="281" y="700.0" name="_caronalt"/>
  <outline>
    <contour>
      <point x="361" y="700.0" type="line"/>
      <point x="314" y="472.0" type="line"/>
      <point x="379" y="472.0" type="line"/>
      <point x="450" y="700.0" type="line"/>
    </contour>
  </outline>
</glyph>
<glyph name="circumflexcmb.uc" format="2">
  <advance width="600"/>
  <outline>
    <contour>
      <point x="367" y="892" type="line"/>
      <point x="234" y="771" type="line"/>
      <point x="312" y="771" type="line"/>
      <point x="435" y="855" type="line"/>
      <point x="383" y="855" type="line"/>
      <point x="476" y="771" type="line"/>
      <point x="546" y="771" type="line"/>
      <point x="457" y="892" type="line"/>
    </contour>
  </outline>
</glyph>
<glyph name="comma.tab" format="2">
  <advance width="600"/>
  <outline>
    <contour>
      <point x="219" y="149" type="line"/>
      <point x="193" y="0" type="line"/>
      <point x="256" y="0" type="line"/>
      <point x="254" y="-12" type="line" smooth="yes"/>
      <point x="245" y="-67"/>
      <point x="211" y="-90"/>
      <point x="156" y="-90" type="curve"/>
      <point x="146" y="-146" type="line"/>
      <point x="265" y="-146"/>
      <point x="306" y="-73"/>
      <point x="317" y="-12" type="curve" smooth="yes"/>
      <point x="345" y="149" type="line"/>
    </contour>
  </outline>
</glyph>
<glyph name="dotaccentcmb.uc" format="2">
  <advance width="600"/>
  <outline>
    <contour>
      <point x="361" y="878" type="line"/>
      <point x="342" y="771" type="line"/>
      <point x="442" y="771" type="line"/>
      <point x="461" y="878" type="line"/>
    </contour>
  </outline>
</glyph>
<glyph name="eight.num" format="2">
  <advance width="360"/>
  <outline>
    <contour>
      <point x="195" y="544"/>
      <point x="173" y="562"/>
      <point x="173" y="590" type="curve" smooth="yes"/>
      <point x="173" y="621"/>
      <point x="202" y="648"/>
      <point x="243" y="648" type="curve" smooth="yes"/>
      <point x="277" y="648"/>
      <point x="299" y="630"/>
      <point x="299" y="603" type="curve" smooth="yes"/>
      <point x="299" y="572"/>
      <point x="270" y="544"/>
      <point x="229" y="544" type="curve" smooth="yes"/>
    </contour>
    <contour>
      <point x="167" y="514" type="curve"/>
      <point x="169" y="524" type="line"/>
      <point x="110" y="515"/>
      <point x="60" y="474"/>
      <point x="60" y="407" type="curve" smooth="yes"/>
      <point x="60" y="345"/>
      <point x="111" y="302"/>
      <point x="191" y="302" type="curve" smooth="yes"/>
      <point x="295" y="302"/>
      <point x="352" y="372"/>
      <point x="352" y="435" type="curve" smooth="yes"/>
      <point x="352" y="482"/>
      <point x="320" y="509"/>
      <point x="277" y="520" type="curve"/>
      <point x="275" y="510" type="line"/>
      <point x="325" y="518"/>
      <point x="372" y="551"/>
      <point x="372" y="610" type="curve" smooth="yes"/>
      <point x="372" y="666"/>
      <point x="326" y="706"/>
      <point x="248" y="706" type="curve" smooth="yes"/>
      <point x="151" y="706"/>
      <point x="102" y="643"/>
      <point x="102" y="589" type="curve" smooth="yes"/>
      <point x="102" y="547"/>
      <point x="131" y="522"/>
    </contour>
    <contour>
      <point x="253" y="488"/>
      <point x="278" y="468"/>
      <point x="278" y="435" type="curve" smooth="yes"/>
      <point x="278" y="403"/>
      <point x="254" y="360"/>
      <point x="198" y="360" type="curve" smooth="yes"/>
      <point x="158" y="360"/>
      <point x="134" y="382"/>
      <point x="134" y="415" type="curve" smooth="yes"/>
      <point x="134" y="447"/>
      <point x="157" y="488"/>
      <point x="213" y="488" type="curve" smooth="yes"/>
    </contour>
  </outline>
</glyph>
<glyph name="five.num" format="2">
  <advance width="346"/>
  <outline>
    <contour>
      <point x="204" y="679" type="line"/>
      <point x="161" y="638" type="line"/>
      <point x="365" y="638" type="line"/>
      <point x="376" y="700" type="line"/>
      <point x="143" y="700" type="line"/>
      <point x="85" y="478" type="line"/>
      <point x="152" y="473" type="line"/>
      <point x="168" y="500"/>
      <point x="191" y="517"/>
      <point x="219" y="517" type="curve" smooth="yes"/>
      <point x="252" y="517"/>
      <point x="270" y="495"/>
      <point x="270" y="458" type="curve" smooth="yes"/>
      <point x="270" y="414"/>
      <point x="246" y="361"/>
      <point x="193" y="361" type="curve" smooth="yes"/>
      <point x="155.6" y="361.0"/>
      <point x="134" y="389"/>
      <point x="141" y="423" type="curve"/>
      <point x="61" y="433" type="line"/>
      <point x="60" y="427"/>
      <point x="59" y="420"/>
      <point x="59" y="413" type="curve" smooth="yes"/>
      <point x="59" y="344"/>
      <point x="110" y="302"/>
      <point x="188" y="302" type="curve" smooth="yes"/>
      <point x="283" y="302"/>
      <point x="345" y="376"/>
      <point x="345" y="466" type="curve" smooth="yes"/>
      <point x="345" y="531"/>
      <point x="310" y="573"/>
      <point x="245" y="573" type="curve" smooth="yes"/>
      <point x="192" y="573"/>
      <point x="154" y="542"/>
      <point x="136" y="509" type="curve"/>
      <point x="160" y="508" type="line"/>
    </contour>
  </outline>
</glyph>
<glyph name="five.tab" format="2">
  <advance width="600"/>
  <outline>
    <contour>
      <point x="197" y="700" type="line"/>
      <point x="97" y="320" type="line"/>
      <point x="174" y="309" type="line"/>
      <point x="201" y="352"/>
      <point x="259" y="395"/>
      <point x="333" y="395" type="curve" smooth="yes"/>
      <point x="402.0" y="395.0"/>
      <point x="458" y="353"/>
      <point x="458" y="262" type="curve" smooth="yes"/>
      <point x="458" y="163"/>
      <point x="397" y="61"/>
      <point x="274" y="61" type="curve" smooth="yes"/>
      <point x="186" y="61"/>
      <point x="141" y="110"/>
      <point x="141" y="175" type="curve" smooth="yes"/>
      <point x="141" y="181"/>
      <point x="141" y="188"/>
      <point x="142" y="195" type="curve"/>
      <point x="49" y="208" type="line"/>
      <point x="48" y="200"/>
      <point x="47" y="189"/>
      <point x="47" y="178" type="curve" smooth="yes"/>
      <point x="47" y="55"/>
      <point x="138" y="-12"/>
      <point x="265" y="-12" type="curve" smooth="yes"/>
      <point x="456" y="-12"/>
      <point x="551" y="137"/>
      <point x="551" y="270" type="curve" smooth="yes"/>
      <point x="551" y="399"/>
      <point x="469" y="465"/>
      <point x="355" y="465" type="curve" smooth="yes"/>
      <point x="258.0" y="465.0"/>
      <point x="189" y="417"/>
      <point x="163" y="364" type="curve"/>
      <point x="186" y="363" type="line"/>
      <point x="268" y="664" type="line"/>
      <point x="212" y="621" type="line"/>
      <point x="586" y="621" type="line"/>
      <point x="600" y="700" type="line"/>
    </contour>
  </outline>
</glyph>
<glyph name="four.tab" format="2">
  <advance width="600"/>
  <outline>
    <contour>
      <point x="525" y="700" type="line"/>
      <point x="427" y="700" type="line"/>
      <point x="28" y="261" type="line"/>
      <point x="15" y="183" type="line"/>
      <point x="555" y="183" type="line"/>
      <point x="568" y="260" type="line"/>
      <point x="56" y="260" type="line"/>
      <point x="65" y="196" type="line"/>
      <point x="487" y="661" type="line"/>
      <point x="429" y="661" type="line"/>
      <point x="312" y="0" type="line"/>
      <point x="401" y="0" type="line"/>
    </contour>
  </outline>
</glyph>
<glyph name="gravecmb.uc" format="2">
  <advance width="600"/>
  <anchor x="330" y="771" name="center"/>
  <outline>
    <contour>
      <point x="403" y="892" type="line"/>
      <point x="456" y="771" type="line"/>
      <point x="392" y="771" type="line"/>
      <point x="316" y="892" type="line"/>
    </contour>
  </outline>
</glyph>
<glyph name="guarani.tab" format="2">
  <advance width="600"/>
  <outline>
    <contour>
      <point x="206" y="-112" type="line"/>
      <point x="273" y="-112" type="line"/>
      <point x="433" y="797" type="line"/>
      <point x="366" y="797" type="line"/>
    </contour>
    <contour>
      <point x="453" y="138" type="curve"/>
      <point x="434" y="144" type="line"/>
      <point x="409" y="0" type="line"/>
      <point x="482" y="0" type="line"/>
      <point x="546" y="367" type="line"/>
      <point x="399" y="367" type="line"/>
      <point x="387" y="295" type="line"/>
      <point x="505" y="295" type="line"/>
      <point x="465" y="311" type="line"/>
      <point x="461" y="286" type="line" smooth="yes"/>
      <point x="441" y="164"/>
      <point x="376" y="63"/>
      <point x="284" y="63" type="curve" smooth="yes"/>
      <point x="208" y="63"/>
      <point x="163" y="133"/>
      <point x="163" y="251" type="curve" smooth="yes"/>
      <point x="163" y="423"/>
      <point x="239" y="635"/>
      <point x="379" y="635" type="curve" smooth="yes"/>
      <point x="460" y="635"/>
      <point x="488" y="569"/>
      <point x="488" y="478" type="curve"/>
      <point x="566" y="493" type="line"/>
      <point x="565" y="615"/>
      <point x="511" y="712"/>
      <point x="388" y="712" type="curve" smooth="yes"/>
      <point x="189" y="712"/>
      <point x="73" y="469"/>
      <point x="73" y="251" type="curve" smooth="yes"/>
      <point x="73" y="86"/>
      <point x="146" y="-12"/>
      <point x="266" y="-12" type="curve" smooth="yes"/>
      <point x="357" y="-12"/>
      <point x="423" y="47"/>
    </contour>
  </outline>
</glyph>
<glyph name="hungarumlautcmb.uc" format="2">
  <advance width="600"/>
  <anchor x="266" y="771" name="center"/>
  <outline>
    <contour>
      <point x="319" y="892" type="line"/>
      <point x="407" y="892" type="line"/>
      <point x="321" y="771" type="line"/>
      <point x="242" y="771" type="line"/>
    </contour>
    <contour>
      <point x="466" y="892" type="line"/>
      <point x="554" y="892" type="line"/>
      <point x="468" y="771" type="line"/>
      <point x="389" y="771" type="line"/>
    </contour>
  </outline>
</glyph>
<glyph name="hyphen.uc" format="2">
  <advance width="424"/>
  <outline>
    <contour>
      <point x="63" y="296" type="line"/>
      <point x="349" y="296" type="line"/>
      <point x="363" y="376" type="line"/>
      <point x="77" y="376" type="line"/>
    </contour>
  </outline>
</glyph>
<glyph name="macronbelowcmb.uc" format="2">
  <advance width="600"/>
  <outline>
    <contour>
      <point x="93.0" y="-152.0" type="line"/>
      <point x="367.0" y="-152.0" type="line"/>
      <point x="379.0" y="-84.0" type="line"/>
      <point x="105.0" y="-84.0" type="line"/>
    </contour>
  </outline>
</glyph>
<glyph name="newsheqel.tab" format="2">
  <advance width="600"/>
  <outline>
    <contour>
      <point x="319" y="700.0" type="line" smooth="yes"/>
      <point x="448.0" y="700.0"/>
      <point x="483" y="640"/>
      <point x="464" y="530.0" type="curve" smooth="yes"/>
      <point x="403" y="184.0" type="line"/>
      <point x="324" y="184.0" type="line"/>
      <point x="384" y="528.0" type="line" smooth="yes"/>
      <point x="395" y="590"/>
      <point x="377.0" y="625.0"/>
      <point x="302" y="625.0" type="curve" smooth="yes"/>
      <point x="182" y="625.0" type="line"/>
      <point x="72" y="0.0" type="line"/>
      <point x="-9" y="0.0" type="line"/>
      <point x="115" y="700.0" type="line"/>
    </contour>
    <contour>
      <point x="321" y="0.0" type="line" smooth="yes"/>
      <point x="196.0" y="0"/>
      <point x="154" y="62"/>
      <point x="174" y="177.0" type="curve" smooth="yes"/>
      <point x="233" y="516.0" type="line"/>
      <point x="312" y="516.0" type="line"/>
      <point x="253" y="178.0" type="line" smooth="yes"/>
      <point x="241" y="110"/>
      <point x="260.0" y="75.0"/>
      <point x="337" y="75.0" type="curve" smooth="yes"/>
      <point x="454" y="75.0" type="line"/>
      <point x="564" y="700.0" type="line"/>
      <point x="645" y="700.0" type="line"/>
      <point x="521" y="0.0" type="line"/>
    </contour>
  </outline>
</glyph>
<glyph name="nine.num" format="2">
  <advance width="365"/>
  <outline>
    <contour>
      <point x="372" y="659"/>
      <point x="325" y="706"/>
      <point x="249" y="706" type="curve" smooth="yes"/>
      <point x="149" y="706"/>
      <point x="90" y="628"/>
      <point x="90" y="549" type="curve" smooth="yes"/>
      <point x="90" y="480"/>
      <point x="137" y="440"/>
      <point x="199" y="440" type="curve" smooth="yes"/>
      <point x="251" y="440"/>
      <point x="297" y="470"/>
      <point x="316" y="527" type="curve"/>
      <point x="293" y="528" type="line"/>
      <point x="286" y="492" type="line" smooth="yes"/>
      <point x="273" y="417"/>
      <point x="246" y="360"/>
      <point x="192" y="360" type="curve" smooth="yes"/>
      <point x="160.0" y="360.0"/>
      <point x="143" y="379"/>
      <point x="144" y="412" type="curve"/>
      <point x="68" y="424" type="line"/>
      <point x="67" y="418"/>
      <point x="66" y="412"/>
      <point x="66" y="405" type="curve" smooth="yes"/>
      <point x="66" y="344"/>
      <point x="106" y="302"/>
      <point x="184" y="302" type="curve" smooth="yes"/>
      <point x="285" y="302"/>
      <point x="339" y="372"/>
      <point x="363" y="507" type="curve" smooth="yes"/>
      <point x="369" y="537"/>
      <point x="372" y="561"/>
      <point x="372" y="581" type="curve" smooth="yes"/>
    </contour>
    <contour>
      <point x="189" y="498"/>
      <point x="165" y="519"/>
      <point x="165" y="558" type="curve" smooth="yes"/>
      <point x="165" y="602"/>
      <point x="193" y="646"/>
      <point x="241" y="646" type="curve" smooth="yes"/>
      <point x="273" y="646"/>
      <point x="297" y="625"/>
      <point x="297" y="586" type="curve" smooth="yes"/>
      <point x="297" y="542"/>
      <point x="269" y="498"/>
      <point x="221" y="498" type="curve" smooth="yes"/>
    </contour>
  </outline>
</glyph>
<glyph name="one.num" format="2">
  <advance width="285"/>
  <outline>
    <contour>
      <point x="210" y="700" type="line"/>
      <point x="198" y="632"/>
      <point x="179" y="611"/>
      <point x="86" y="611" type="curve"/>
      <point x="76" y="557" type="line"/>
      <point x="220" y="557" type="line"/>
      <point x="183" y="601" type="line"/>
      <point x="131" y="308" type="line"/>
      <point x="206" y="308" type="line"/>
      <point x="276" y="700" type="line"/>
    </contour>
  </outline>
</glyph>
<glyph name="parenleft.uc" format="2">
  <advance width="379"/>
  <outline>
    <contour>
      <point x="164" y="429"/>
      <point x="272" y="604"/>
      <point x="468" y="745" type="curve"/>
      <point x="358" y="745" type="line"/>
      <point x="179" y="620"/>
      <point x="69" y="432"/>
      <point x="69" y="263" type="curve" smooth="yes"/>
      <point x="69" y="141"/>
      <point x="123" y="11"/>
      <point x="214" y="-83" type="curve"/>
      <point x="312" y="-83" type="line"/>
      <point x="215" y="16"/>
      <point x="164" y="142"/>
      <point x="164" y="262" type="curve" smooth="yes"/>
    </contour>
  </outline>
</glyph>
<glyph name="plus.sub" format="2">
  <advance width="390"/>
  <outline>
    <contour>
      <point x="11" y="61.0" type="line"/>
      <point x="311" y="61.0" type="line"/>
      <point x="323" y="126.0" type="line"/>
      <point x="23" y="126.0" type="line"/>
    </contour>
    <contour>
      <point x="160" y="251.0" type="line"/>
      <point x="104" y="-64.0" type="line"/>
      <point x="174" y="-64.0" type="line"/>
      <point x="230" y="251.0" type="line"/>
    </contour>
  </outline>
</glyph>
<glyph name="seven.num" format="2">
  <advance width="354"/>
  <outline>
    <contour>
      <point x="117" y="700" type="line"/>
      <point x="92" y="558" type="line"/>
      <point x="163" y="558" type="line"/>
      <point x="183" y="673" type="line"/>
      <point x="153" y="638" type="line"/>
      <point x="366" y="638" type="line"/>
      <point x="351" y="682" type="line"/>
      <point x="249" y="567"/>
      <point x="136" y="441"/>
      <point x="106" y="308" type="curve"/>
      <point x="184" y="308" type="line"/>
      <point x="217" y="438"/>
      <point x="316" y="553"/>
      <point x="405" y="662" type="curve"/>
      <point x="412" y="700" type="line"/>
    </contour>
  </outline>
</glyph>
<glyph name="six.num" format="2">
  <advance width="365"/>
  <outline>
    <contour>
      <point x="74" y="351"/>
      <point x="116" y="302"/>
      <point x="196" y="302" type="curve" smooth="yes"/>
      <point x="300" y="302"/>
      <point x="357" y="388"/>
      <point x="357" y="462" type="curve" smooth="yes"/>
      <point x="357" y="529"/>
      <point x="311" y="568"/>
      <point x="252" y="568" type="curve" smooth="yes"/>
      <point x="199" y="568"/>
      <point x="151" y="536"/>
      <point x="131" y="482" type="curve"/>
      <point x="155" y="481" type="line"/>
      <point x="161" y="515" type="line" smooth="yes"/>
      <point x="176" y="598"/>
      <point x="217" y="644"/>
      <point x="262" y="644" type="curve" smooth="yes"/>
      <point x="289.1304347826087" y="644.0"/>
      <point x="309" y="626"/>
      <point x="303" y="597" type="curve"/>
      <point x="374" y="589" type="line"/>
      <point x="375" y="593"/>
      <point x="376" y="601"/>
      <point x="376" y="608" type="curve" smooth="yes"/>
      <point x="376" y="664"/>
      <point x="340" y="705"/>
      <point x="270" y="705" type="curve" smooth="yes"/>
      <point x="179" y="705"/>
      <point x="103" y="624"/>
      <point x="81" y="498" type="curve" smooth="yes"/>
      <point x="76" y="471"/>
      <point x="74" y="449"/>
      <point x="74" y="429" type="curve" smooth="yes"/>
    </contour>
    <contour>
      <point x="165" y="361"/>
      <point x="148" y="387"/>
      <point x="148" y="421" type="curve" smooth="yes"/>
      <point x="148" y="467"/>
      <point x="179" y="511"/>
      <point x="227" y="511" type="curve" smooth="yes"/>
      <point x="264" y="511"/>
      <point x="280" y="485"/>
      <point x="280" y="451" type="curve" smooth="yes"/>
      <point x="280" y="405"/>
      <point x="250" y="361"/>
      <point x="202" y="361" type="curve" smooth="yes"/>
    </contour>
  </outline>
</glyph>
<glyph name="six.tab" format="2">
  <advance width="600"/>
  <outline>
    <contour>
      <point x="60" y="64"/>
      <point x="146" y="-12"/>
      <point x="272" y="-12" type="curve" smooth="yes"/>
      <point x="453" y="-12"/>
      <point x="547" y="138"/>
      <point x="547" y="272" type="curve"/>
      <point x="547" y="394"/>
      <point x="466" y="467"/>
      <point x="355" y="467" type="curve" smooth="yes"/>
      <point x="260" y="467"/>
      <point x="166" y="412"/>
      <point x="133" y="311" type="curve"/>
      <point x="160" y="310" type="line"/>
      <point x="171" y="374" type="line" smooth="yes"/>
      <point x="199" y="529"/>
      <point x="298" y="637"/>
      <point x="404" y="637" type="curve" smooth="yes"/>
      <point x="474.531914893617" y="637.0"/>
      <point x="508" y="590"/>
      <point x="504" y="539" type="curve"/>
      <point x="592" y="524" type="line"/>
      <point x="593" y="531"/>
      <point x="593" y="538"/>
      <point x="593" y="545" type="curve" smooth="yes"/>
      <point x="593" y="632"/>
      <point x="538" y="712"/>
      <point x="416" y="712" type="curve" smooth="yes"/>
      <point x="263" y="712"/>
      <point x="115" y="583"/>
      <point x="73" y="340" type="curve" smooth="yes"/>
      <point x="64" y="292"/>
      <point x="60" y="251"/>
      <point x="60" y="215" type="curve" smooth="yes"/>
    </contour>
    <contour>
      <point x="202" y="64"/>
      <point x="148" y="116"/>
      <point x="148" y="198" type="curve" smooth="yes"/>
      <point x="148" y="294"/>
      <point x="220" y="392"/>
      <point x="325" y="392" type="curve" smooth="yes"/>
      <point x="403" y="392"/>
      <point x="455" y="339"/>
      <point x="455" y="257" type="curve" smooth="yes"/>
      <point x="455" y="161"/>
      <point x="385" y="64"/>
      <point x="280" y="64" type="curve" smooth="yes"/>
    </contour>
  </outline>
</glyph>
<glyph name="slash.uc" format="2">
  <advance width="453"/>
  <outline>
    <contour>
      <point x="443" y="745" type="line"/>
      <point x="-78" y="-83" type="line"/>
      <point x="18" y="-83" type="line"/>
      <point x="539" y="745" type="line"/>
    </contour>
  </outline>
</glyph>
<glyph name="sterling.tab" format="2">
  <advance width="600"/>
  <outline>
    <contour>
      <point x="429" y="266" type="line"/>
      <point x="68" y="266" type="line"/>
      <point x="80" y="336" type="line"/>
      <point x="441" y="336" type="line"/>
    </contour>
    <contour>
      <point x="36" y="77" type="line" smooth="yes"/>
      <point x="117" y="77"/>
      <point x="180" y="153"/>
      <point x="180" y="230" type="curve" smooth="yes"/>
      <point x="180" y="297"/>
      <point x="137" y="362"/>
      <point x="137" y="447" type="curve" smooth="yes"/>
      <point x="137" y="573"/>
      <point x="213" y="712"/>
      <point x="389" y="712" type="curve" smooth="yes"/>
      <point x="509" y="712"/>
      <point x="581" y="639"/>
      <point x="581" y="550" type="curve"/>
      <point x="581" y="519"/>
      <point x="572" y="485"/>
      <point x="560" y="466" type="curve"/>
      <point x="477" y="472" type="line"/>
      <point x="486" y="489"/>
      <point x="495" y="507"/>
      <point x="495" y="533" type="curve" smooth="yes"/>
      <point x="495" y="589"/>
      <point x="457" y="633"/>
      <point x="382" y="633" type="curve" smooth="yes"/>
      <point x="273" y="633"/>
      <point x="227" y="533"/>
      <point x="227" y="456" type="curve" smooth="yes"/>
      <point x="227" y="380"/>
      <point x="272" y="313"/>
      <point x="272" y="237" type="curve" smooth="yes"/>
      <point x="272" y="162"/>
      <point x="223" y="88"/>
      <point x="120" y="58" type="curve"/>
      <point x="124" y="77" type="line"/>
      <point x="511" y="77" type="line"/>
      <point x="497" y="0" type="line"/>
      <point x="9" y="0" type="line"/>
      <point x="23" y="77" type="line"/>
    </contour>
  </outline>
</glyph>
<glyph name="tildecmb.uc" format="2">
  <advance width="600"/>
  <outline>
    <contour>
      <point x="350" y="878" type="curve" smooth="yes"/>
      <point x="302" y="878"/>
      <point x="269" y="836"/>
      <point x="255" y="771" type="curve"/>
      <point x="312" y="771" type="line"/>
      <point x="320" y="799"/>
      <point x="329" y="812"/>
      <point x="345" y="812" type="curve" smooth="yes"/>
      <point x="373" y="812"/>
      <point x="409" y="778"/>
      <point x="452" y="778" type="curve" smooth="yes"/>
      <point x="500" y="778"/>
      <point x="533" y="820"/>
      <point x="547" y="885" type="curve"/>
      <point x="489" y="885" type="line"/>
      <point x="482" y="857"/>
      <point x="473" y="844"/>
      <point x="457" y="844" type="curve" smooth="yes"/>
      <point x="429" y="844"/>
      <point x="393" y="878"/>
    </contour>
  </outline>
</glyph>
<glyph name="turkishlira.tab" format="2">
  <advance width="600"/>
  <outline>
    <contour>
      <point x="54" y="286" type="line"/>
      <point x="422" y="468" type="line"/>
      <point x="437" y="548" type="line"/>
      <point x="68" y="366" type="line"/>
    </contour>
    <contour>
      <point x="27" y="135" type="line"/>
      <point x="395" y="317" type="line"/>
      <point x="409" y="398" type="line"/>
      <point x="41" y="216" type="line"/>
    </contour>
    <contour>
      <point x="200" y="700" type="line"/>
      <point x="76" y="0" type="line"/>
      <point x="162" y="0" type="line"/>
      <point x="286" y="700" type="line"/>
    </contour>
    <contour>
      <point x="111" y="0" type="line"/>
      <point x="260" y="0" type="line" smooth="yes"/>
      <point x="420" y="0"/>
      <point x="511" y="82"/>
      <point x="557" y="224" type="curve"/>
      <point x="485" y="245" type="line"/>
      <point x="445" y="120"/>
      <point x="373" y="77"/>
      <point x="271" y="77" type="curve" smooth="yes"/>
      <point x="125" y="77" type="line"/>
    </contour>
  </outline>
</glyph>
<glyph name="two.num" format="2">
  <advance width="343"/>
  <outline>
    <contour>
      <point x="51" y="369" type="curve"/>
      <point x="40" y="308" type="line"/>
      <point x="311" y="308" type="line"/>
      <point x="322" y="372" type="line"/>
      <point x="98" y="372" type="line"/>
      <point x="101" y="339" type="line"/>
      <point x="267" y="450"/>
      <point x="358" y="503"/>
      <point x="358" y="598" type="curve" smooth="yes"/>
      <point x="358" y="653"/>
      <point x="325" y="706"/>
      <point x="235" y="706" type="curve" smooth="yes"/>
      <point x="129" y="706"/>
      <point x="86" y="628"/>
      <point x="86" y="575" type="curve" smooth="yes"/>
      <point x="86" y="563"/>
      <point x="88" y="552"/>
      <point x="94" y="541" type="curve"/>
      <point x="162" y="548" type="line"/>
      <point x="158" y="557"/>
      <point x="156" y="566"/>
      <point x="156" y="574" type="curve" smooth="yes"/>
      <point x="156" y="597"/>
      <point x="174" y="643"/>
      <point x="227" y="643" type="curve" smooth="yes"/>
      <point x="262" y="643"/>
      <point x="283" y="622"/>
      <point x="283" y="588" type="curve" smooth="yes"/>
      <point x="283" y="527"/>
      <point x="220" y="493"/>
    </contour>
  </outline>
</glyph>
<glyph name="two.tab" format="2">
  <advance width="600"/>
  <outline>
    <contour>
      <point x="33" y="75" type="curve"/>
      <point x="20" y="0" type="line"/>
      <point x="485" y="0" type="line"/>
      <point x="499" y="77" type="line"/>
      <point x="96" y="77" type="line"/>
      <point x="91" y="29" type="line"/>
      <point x="398" y="242"/>
      <point x="569" y="359"/>
      <point x="569" y="523" type="curve" smooth="yes"/>
      <point x="569" y="626"/>
      <point x="500" y="712"/>
      <point x="365" y="712" type="curve" smooth="yes"/>
      <point x="217" y="712"/>
      <point x="112" y="606"/>
      <point x="112" y="485" type="curve" smooth="yes"/>
      <point x="112" y="465"/>
      <point x="115" y="449"/>
      <point x="122" y="428" type="curve"/>
      <point x="207" y="441" type="line"/>
      <point x="203" y="458"/>
      <point x="200" y="472"/>
      <point x="200" y="486" type="curve" smooth="yes"/>
      <point x="200" y="555"/>
      <point x="246" y="633"/>
      <point x="353" y="633" type="curve" smooth="yes"/>
      <point x="436" y="633"/>
      <point x="477" y="583"/>
      <point x="477" y="515" type="curve" smooth="yes"/>
      <point x="477" y="382"/>
      <point x="345" y="304"/>
    </contour>
  </outline>
</glyph>
